<svg id="license" data-name="license" xmlns="http://www.w3.org/2000/svg" xmlns:xlink="http://www.w3.org/1999/xlink" viewBox="0 0 305.03 214.98"><defs><style>.cls-1{fill:none;}.cls-2{fill:#efefef;}.cls-3{fill:#fff;}.cls-4{fill:#b5a07e;}.cls-5{fill:#f4917a;}.cls-6{fill:#484a49;}.cls-7{fill:#cb593a;}.cls-8{fill:#4180b4;}.cls-9{fill:#82d3e3;}.cls-10{clip-path:url(#clip-path);}.cls-11{fill:#735044;}.cls-12{fill:#fad8b5;}</style><clipPath id="clip-path" transform="translate(-22.25 -67.7)"><rect class="cls-1" x="226.88" y="127.07" width="82.11" height="102.42"/></clipPath></defs><rect class="cls-2" x="2" y="2" width="303.03" height="192.57" rx="6"/><rect class="cls-3" width="303.03" height="192.57" rx="6"/><rect class="cls-4" x="12.33" y="67.29" width="177.4" height="17.78"/><path class="cls-5" d="M144.56,223.76V222L156.83,215h3Zm30.21,17h0l25.84-14.92h0l13.22-7.63V216.5l-14.14,8.17h0l-25.84,14.91h0l-14.77,8.53h3Zm-3-5.16h0l25.84-14.92h0l9.92-5.73h-3l-7.87,4.54h0l-25.84,14.92h0l-23.72,13.69h3Zm-3-5.17h0l25.84-14.92h0l1-.56h-3l-24.75,14.29h0l-23.32,13.46v1.72Zm-3-5.17h0L183.68,215h-3l-15.79,9.12h0l-20.34,11.74v1.72Zm-3-5.17h0l8.9-5.14h-3l-6.85,3.95h0l-17.35,10v1.72Zm10.44,18.09h0l25.84-14.92h0l14.4-8.31h-3l-12.33,7.12h0L172.36,237h0l-19.25,11.11h3Zm-3-5.17h0l25.84-14.92h0l5.44-3.14h-3l-3.39,1.95h0l-25.84,14.92h0l-24.81,14.33v1.72Zm-3-5.17h0L189.65,215h-3l-20.27,11.7h0l-21.83,12.61V241Zm-3-5.16h0L177.71,215h-3l-11.32,6.54h0l-18.85,10.88v1.72Zm-3-5.17h0l4.43-2.56h-3l-2.37,1.37h0l-15.86,9.16v1.72Zm50.27,27.82h0l-4.8,2.77h3l2.75-1.58h0l1.28-.74v-1.73Zm-3-5.17h0l-13.76,7.94h3l11.69-6.75h0l4.27-2.47v-1.72Zm-3-5.17h0L183,248.11h3l20.65-11.92h0l7.25-4.19v-1.72Zm7.45,12.92h0l-.33.19h1.05v-.6Zm-3-5.17h0l-9.28,5.36h3l7.23-4.17h0l2.77-1.6v-1.72Zm-3-5.16h0l-18.24,10.52h3l16.17-9.34h0l5.76-3.32v-1.72Zm-29.39,8.35h0L203.6,231h0l10.23-5.91v-1.72l-11.16,6.44h0l-25.84,14.92h0L171,248.11h3Zm-1.49-2.58h0l25.83-14.92h0l11.73-6.77V220l-12.65,7.3h0l-25.84,14.92h0l-10.29,5.94h3ZM144.89,215l-.33.19v1.72l3.31-1.91Zm6,0-6.3,3.63v1.73l9.28-5.36ZM180,248.11l25.13-14.5h0l8.74-5.05v-1.72l-9.67,5.58h0l-25.84,14.92h0l-1.34.77Z" transform="translate(-22.25 -67.7)"/><path class="cls-6" d="M306.47,108.15H41.83a7.69,7.69,0,0,0-7.69,7.68V240.74a7.69,7.69,0,0,0,7.69,7.68H306.47a7.69,7.69,0,0,0,7.69-7.68V115.83A7.69,7.69,0,0,0,306.47,108.15Zm-271.7,7.68a7.07,7.07,0,0,1,7.06-7.06H56.64v12.79H34.77Zm0,6.35H56.64v12.5H34.77ZM49.87,247.8h-8a7.07,7.07,0,0,1-7.06-7.06v-3.85h15.1Zm0-11.53H34.77V226.08h15.1Zm0-10.81H34.77V215.27h15.1Zm94.38,22.34H132.74V215.27h11.51Zm9.52,0h-8.9v-16h8.9Zm0-16.57h-8.9v-16h8.9Zm9.52,16.57h-8.9v-16h8.9Zm0-16.57h-8.9v-16h8.9Zm9.53,16.57h-8.9v-16h8.9Zm0-16.57h-8.9v-16h8.9Zm9.52,16.57h-8.9v-16h8.9Zm0-16.57h-8.9v-16h8.9Zm9.52,16.57H183v-16h8.9Zm0-16.57H183v-16h8.9Zm9.52,16.57h-8.9v-16h8.9Zm0-16.57h-8.9v-16h8.9Zm12.14,16.57H202v-16h11.51Zm0-16.57H202v-16h11.51Zm100,9.51a7.07,7.07,0,0,1-7.07,7.06H214.14V214.65h-82V247.8H50.49V201h-.62v13.64H34.77V135.3H224.55v-.62H57.26v-12.5H313.54Zm0-119.18H57.26V108.77H306.47a7.07,7.07,0,0,1,7.07,7.06Zm-6.36-42.75H41.12a7.62,7.62,0,0,0-7.6,7.61v1.07a7.61,7.61,0,0,0,7.6,7.6H307.18a7.62,7.62,0,0,0,7.61-7.6V86.42A7.63,7.63,0,0,0,307.18,78.81Zm-273,8.68V86.42a7,7,0,0,1,7-7H56.64v15H41.12A7,7,0,0,1,34.14,87.49Zm23.12-8.06H211.54v15H57.26Zm256.91,8.06a7,7,0,0,1-7,7h-95v-15h95a7,7,0,0,1,7,7Z" transform="translate(-22.25 -67.7)"/><path class="cls-6" d="M59.5,196.3H41.93a4.65,4.65,0,0,1-4.64-4.65V181.29a4.65,4.65,0,0,1,4.64-4.65H59.5a4.66,4.66,0,0,1,4.64,4.65v10.36A4.66,4.66,0,0,1,59.5,196.3ZM41.93,177.89a3.4,3.4,0,0,0-3.4,3.4v10.36a3.4,3.4,0,0,0,3.4,3.4H59.5a3.4,3.4,0,0,0,3.39-3.4V181.29a3.4,3.4,0,0,0-3.39-3.4Z" transform="translate(-22.25 -67.7)"/><path d="M45.65,86.75H43.74c.21,1.23.61,2.16,1.1,2.16.18,0,.26-.26.3-1a2,2,0,0,0,.67.44c-.14,1.08-.4,1.34-1,1.34h0c-1,0-1.62-1.3-1.89-3H41.18v1.82c.58-.08,1.2-.17,1.8-.27L43,89c-1.09.22-2.22.43-3,.56a.15.15,0,0,1-.12.12l-.31-.92.73-.1V84l.71.18a21.28,21.28,0,0,0,3.48-.7l.65.7a.45.45,0,0,1-.19,0c-.39.11-.84.22-1.32.31h.08c0,.07-.06.11-.2.13,0,.44,0,.89.06,1.31h2ZM41.18,86h1.63c0-.41-.07-.84-.08-1.28-.51.09-1,.16-1.55.22Zm10.73.75v3h-.83v-.24H48.81v.23H48V87.81a8.69,8.69,0,0,1-1.49.67,2.48,2.48,0,0,0-.46-.71,7.48,7.48,0,0,0,2.33-1.16,7,7,0,0,0-.87-.75l.59-.51a9,9,0,0,1,.91.72,5.16,5.16,0,0,0,1-1.24H48.28a7.66,7.66,0,0,1-1.62,1.34,2.4,2.4,0,0,0-.56-.63,5.1,5.1,0,0,0,2.16-2.11l1,.18a.16.16,0,0,1-.18.12l-.26.39h1.62l.12,0,.59.3a.22.22,0,0,1-.12.09,6,6,0,0,1-1.52,2.23Zm-3.1,2.06h2.27V87.42H48.81Z" transform="translate(-22.25 -67.7)"/><path d="M40.34,115.32a7.61,7.61,0,0,1-.58.74,5.3,5.3,0,0,0-.38-.8,7.9,7.9,0,0,0,1.53-2.78l.88.31a.16.16,0,0,1-.18.08c-.17.42-.36.86-.57,1.27l.24.06c0,.06-.06.11-.17.12v4.41h-.77Zm3.71,2.43h1.72v.76H41.45v-.76h1.79v-1.33H41.83v-.75h1.41v-1.16H41.61v-.76h1.9A11.16,11.16,0,0,0,42.4,113l.52-.58a9.74,9.74,0,0,1,1.52,1l-.29.33h1.53v.76H44.05v1.16h1.44v.75H44.05Zm5-1.44H47.24a5.16,5.16,0,0,1-.6,2.42,2.76,2.76,0,0,0-.63-.48,5,5,0,0,0,.49-2.53V114h2.57Zm.17-3.53v.71H46.19v-.71Zm-.94,2h-1v.87h1Zm4.14,0v.77h-.63v3.23H51V115.5h-.79A4.8,4.8,0,0,1,49,118.7a2.17,2.17,0,0,0-.59-.54,4.36,4.36,0,0,0,1-3.22v-1.83l.47.12a8,8,0,0,0,1.73-.69l.74.62a.27.27,0,0,1-.19,0,11.93,11.93,0,0,1-2,.66v.87Z" transform="translate(-22.25 -67.7)"/><path d="M41.87,128a3.86,3.86,0,0,0,.76,1.23,3.84,3.84,0,0,0,.79-1.27l1,.31a.21.21,0,0,1-.2.09,4.94,4.94,0,0,1-.93,1.41,5.88,5.88,0,0,0,2.52.94,3.53,3.53,0,0,0-.52.76,5.93,5.93,0,0,1-2.64-1.14A7,7,0,0,1,40,131.42a4.43,4.43,0,0,0-.47-.72,6.32,6.32,0,0,0,2.51-1,5.45,5.45,0,0,1-.93-1.54Zm.32-.8c0,.07-.12.07-.19.06a7.89,7.89,0,0,1-1.79,1.5,4.21,4.21,0,0,0-.61-.58,5.37,5.37,0,0,0,1.67-1.37ZM45,128.66a10.08,10.08,0,0,0-1.71-1.49l.64-.46H39.68v-.78H42.2v-.78l1,0c0,.07-.05.11-.17.13v.6h2.55v.78H43.94a11.18,11.18,0,0,1,1.74,1.4Zm2.09-.65a7.69,7.69,0,0,1-.63.8,6,6,0,0,0-.4-.8,8.14,8.14,0,0,0,1.6-2.83l.91.31c0,.06-.08.09-.19.08-.17.43-.37.86-.58,1.28l.25.07c0,.06-.06.1-.17.11v4.39h-.79Zm5.33-1.41v.79h-.78v3.08c0,.79-.25,1-1.81,1a2.83,2.83,0,0,0-.28-.8c.3,0,.6,0,.82,0,.44,0,.47,0,.47-.18v-3.08H48.25v-.79h2.56v-1.37l1,0c0,.07,0,.11-.18.13v1.19Zm-3,3.21a7,7,0,0,0-.86-1.6l.69-.34a7.2,7.2,0,0,1,.92,1.56Z" transform="translate(-22.25 -67.7)"/><path d="M70.5,163.36H68.19v.9H67v-9.07H70.5Zm-1.26-7h-1v1.16h1Zm-1,2.29v1.19h1v-1.19Zm0,3.52h1V161h-1Zm6.36-1.9a11.11,11.11,0,0,0,.43,1.23,10.6,10.6,0,0,0,1.18-1.1l1,1a.25.25,0,0,1-.19.07l-.14,0a14.53,14.53,0,0,1-1.34,1,4.52,4.52,0,0,0,1.72,1.62,4.68,4.68,0,0,0-.88,1.1,5.31,5.31,0,0,1-1.88-2.07l.11,1.11c-1.23.29-2.51.57-3.35.75a.25.25,0,0,1-.18.19l-.52-1.41.83-.13V155.1h5.15v5.18Zm.64-4.05H72.64v.91h2.55Zm-2.55,2.92h2.55v-.93H72.64Zm0,1.13v3.13l1.78-.32a11.45,11.45,0,0,1-1-2.81Zm8.08,2.78,1.59-.23.06,1.1a1.63,1.63,0,0,0,1.13-1.43l1.48.15c0,.09-.11.16-.27.17-.23,1-.67,1.88-2.58,2.4a3.2,3.2,0,0,0-.68-1,5.35,5.35,0,0,0,.83-.23h0c-1.44.27-3,.51-3.91.66a.26.26,0,0,1-.2.19l-.38-1.38,1.74-.22v-2.63H78v-1.12h1.55v-.84h-1v-.1l0,0a3.89,3.89,0,0,0-.91-.9,9.69,9.69,0,0,0,2-3l1.47.26c0,.1-.1.16-.27.17l0,0a13.63,13.63,0,0,1,1.75,1.46v-.92h2v-1l1.61.09c0,.12-.09.18-.29.23v.69H88v1h-1l.49.12c0,.08-.12.13-.27.13-.12.22-.29.52-.45.78h1.64v1.05H82.08V157.7h1.45a7.24,7.24,0,0,0-.31-.93l.47-.1h-1l-.72,1.1-.11-.13v1H80.72v.84h1.44v1.12H80.72Zm-2.21,0a10.22,10.22,0,0,0-.43-2l.87-.25a10.05,10.05,0,0,1,.48,1.93Zm3.16-5.56a14.44,14.44,0,0,0-1.44-1.31c-.25.42-.53.87-.84,1.31Zm.74,3.67a.32.32,0,0,1-.28.12,15.59,15.59,0,0,1-.53,1.59l-.79-.29a15.35,15.35,0,0,0,.42-1.78Zm4.24,2.64c0,.19,0,.3.18.3.33,0,.38,0,.42,0s.16-.61.16-1a3.27,3.27,0,0,0,1,.55c-.08,1-.13,1.51-1.26,1.51h-.67c-1.08,0-1.1-.73-1.1-1.36v-1.32H82.75v-3.31h5v3.31h-.82a.36.36,0,0,1-.28.15ZM83.9,160v.44h2.66V160Zm0,1.21v.46h2.66v-.46Zm1.93-3.48-.26-.08a9.06,9.06,0,0,0,.41-1H84.39a4.15,4.15,0,0,1,.33,1l-.33.08Zm13.62-2.19v1.09h-2a5,5,0,0,1,.43.72l-1.14.47A7.7,7.7,0,0,0,96,156.6h-.46a7.73,7.73,0,0,1-.6.76h.28c0,.12-.1.18-.3.22V158h3.34v1.08H94.93v.63h4.45v1.13H97.27a.54.54,0,0,1-.25.1v.53h1.76v1.11H97v1.27c0,1.11-.41,1.37-2.43,1.37a5.23,5.23,0,0,0-.46-1.25l.89,0c.6,0,.6,0,.6-.18v-1.23h-3.3a6.54,6.54,0,0,1,1.51,1.26l-1,.86a7.64,7.64,0,0,0-1.78-1.52l.67-.6h-2v-1.11h5.82v-.63H89.11v-1.13h4.42v-.63H90.29V158h3.24v-.71l.47,0a4.69,4.69,0,0,0-.47-.29,5.29,5.29,0,0,0,.41-.41h-1.5a5.39,5.39,0,0,1,.33.72l-1.15.47a5.53,5.53,0,0,0-.52-1.19H91A7.9,7.9,0,0,1,90,158a6.19,6.19,0,0,0-1-.7,7.29,7.29,0,0,0,1.68-2.7l1.45.45a.28.28,0,0,1-.29.13l-.17.37h2.49v1a6.43,6.43,0,0,0,1.09-1.9l1.48.44c0,.1-.15.14-.28.13l-.17.38Z" transform="translate(-22.25 -67.7)"/><path d="M49,188.28l.85.44c0,.06-.1.08-.16.13a4.29,4.29,0,0,1-1.43,1.24,15,15,0,0,0,2.46.3,5.13,5.13,0,0,0-.7,1.08,13.25,13.25,0,0,1-3.28-.7,17,17,0,0,1-3.23.72,4.29,4.29,0,0,0-.64-1,17.92,17.92,0,0,0,2.54-.42,5.79,5.79,0,0,1-.77-.59c-.33.16-.67.3-1.06.45a3.17,3.17,0,0,0-.72-.82,7.06,7.06,0,0,0,2.63-1.3c-.24-.13-.32-.38-.33-.77a5.16,5.16,0,0,1-1.08,1.11l-.8-.64a3.41,3.41,0,0,0,.6-.44H43v-1.61h1V182.7h1.83a2.79,2.79,0,0,0,.1-.39H43.36v-.78h-.17c-.23.7-.5,1.4-.8,2.09l.33.1c0,.1-.11.16-.29.2v7.54H41.16v-5.53a11.66,11.66,0,0,1-.77,1.09,11.3,11.3,0,0,0-.56-1.42A14.46,14.46,0,0,0,42,180.93l1.32.44v0h7v1H47.33c0,.12-.1.25-.16.39h2.46v2.79h.95v1.61h-.69c.18.21.34.41.45.57l-.89.47a6.32,6.32,0,0,0-.74-.92c-.09.59-.36.77-1,.77H47a.38.38,0,0,1-.22.08l-.27.24h2.31Zm-3.84-1.85,1.27.08-.32-.26H44.16v.55a4.39,4.39,0,0,0,.28-.36l.71.4Zm3.22-3.08H45.24v.34h3.13Zm0,1.25v-.37H45.24v.37Zm-3.13.54v.35h3.13v-.35Zm.44,3.93a4.4,4.4,0,0,0,1.12.61,5.2,5.2,0,0,0,1.13-.61Zm1.88-1.8c.22,0,.28-.05.32-.38a3.65,3.65,0,0,0,.75.25c-.1-.11-.21-.23-.31-.32l.84-.43.22.2v-.34h-2a2.94,2.94,0,0,1,.43.46l-.81.47a3.56,3.56,0,0,0-.58-.62c0,.06-.1.1-.26.13V187c0,.24.07.27.37.27Zm12.84-.46,1,.83a.28.28,0,0,1-.21.07h-.13a26.54,26.54,0,0,1-2.3,1.44,7.38,7.38,0,0,0,3,1.11,4.94,4.94,0,0,0-.85,1.22,6.68,6.68,0,0,1-5.33-4.39H54.18v2.59l2.57-.4.08,1.21c-1.64.33-3.38.64-4.49.83a.27.27,0,0,1-.2.19L51.63,190l1.18-.15v-7.93h2.92v-1.09l1.71.1c0,.11-.1.18-.32.21v.78H60.4ZM59,183.1H54.18v.84H59ZM54.18,185v.9H59V185ZM57,187.08a5.6,5.6,0,0,0,.84,1.27,17.2,17.2,0,0,0,1.88-1.27Z" transform="translate(-22.25 -67.7)"/><path d="M64.17,143.08a18.89,18.89,0,0,0,1.66-4.27.31.31,0,0,1,.42-.26l.31.07a.31.31,0,0,1,.25.42c0,.2-.12.45-.2.74h5.91a.31.31,0,0,1,.35.34c0,.2-.13.31-.35.31H69.63v2.3h2.58a.32.32,0,0,1,.35.35c0,.19-.13.31-.35.31H69.63v2.71H73a.32.32,0,0,1,.35.35c0,.21-.12.32-.35.32H69.63v2.5a.31.31,0,0,1-.35.34H68.9a.31.31,0,0,1-.35-.34v-2.5H64.22a.31.31,0,0,1-.35-.34.31.31,0,0,1,.35-.33H65.7v-3a.31.31,0,0,1,.34-.35h2.51v-2.3H66.39a18.88,18.88,0,0,1-1.41,3.2.29.29,0,0,1-.49.08l-.22-.19C64.11,143.37,64.08,143.24,64.17,143.08Zm4.38.31H66.74v2.71h1.81Zm6.8,6.66a7,7,0,0,1-1.29-2.26,9,9,0,0,1-.54-3.08,8.18,8.18,0,0,1,1.85-5.36.48.48,0,0,1,.42-.19h.06c.3,0,.39.17.22.42a9.59,9.59,0,0,0,0,10.27c.17.25.08.42-.22.42h-.06A.51.51,0,0,1,75.35,150.05Zm1.71-8.43a21.18,21.18,0,0,0,3.78-2.85.61.61,0,0,1,.44-.17H82a.59.59,0,0,1,.43.17,20.32,20.32,0,0,0,3.78,2.84.36.36,0,0,1,.17.46l0,.05a.28.28,0,0,1-.46.17,22.08,22.08,0,0,1-4.25-3.1,22,22,0,0,1-4.24,3.1.28.28,0,0,1-.46-.17v-.05A.32.32,0,0,1,77.06,141.62Zm.22,2.62a.31.31,0,0,1,.35-.33h7.83a.31.31,0,0,1,.34.34v2.82c0,1.34-.11,1.49-1.25,1.49-.31,0-.78,0-1.41-.05a.33.33,0,0,1-.35-.35c0-.22.11-.35.36-.33.57,0,1,0,1.25,0s.35,0,.35-.81v-2.48H81.62v4.61a.31.31,0,0,1-.34.35h-.4a.32.32,0,0,1-.35-.35v-4.61h-2.9A.32.32,0,0,1,77.28,144.24ZM84.46,142c0,.2-.12.29-.34.29h-5a.31.31,0,0,1-.35-.34c0-.2.12-.3.35-.3h5A.31.31,0,0,1,84.46,142Zm7.92.27a.31.31,0,0,1,.34.35c0,.2-.12.29-.34.29H91c.8,1.42,1.33,2.36,1.6,2.86a.38.38,0,0,1-.08.48l-.19.18a.26.26,0,0,1-.47-.1c-.26-.57-.62-1.26-1-1.91v4.9a.31.31,0,0,1-.35.34h-.27a.31.31,0,0,1-.35-.34v-4.12a11.59,11.59,0,0,1-1.26,2.37c-.14.22-.35.21-.49,0l-.11-.16a.4.4,0,0,1,0-.48,12.41,12.41,0,0,0,1.69-4H88.39a.31.31,0,0,1-.34-.34c0-.2.12-.3.34-.3h1.54V139.9l-1.34.15a.3.3,0,0,1-.37-.31c0-.18.1-.27.32-.3a26,26,0,0,0,3.63-.64.31.31,0,0,1,.42.24.27.27,0,0,1-.21.35,10.59,10.59,0,0,1-1.48.32v2.51Zm4,6.75v-.44H93.89V149a.32.32,0,0,1-.35.35H93.2a.32.32,0,0,1-.35-.35v-9.19a.31.31,0,0,1,.35-.35h3.87a.31.31,0,0,1,.34.35V149a.31.31,0,0,1-.34.35h-.36A.32.32,0,0,1,96.36,149Zm0-1.09V140.1H93.89v7.78Zm14.37-4.8a18.44,18.44,0,0,0,1.67-4.27.31.31,0,0,1,.42-.26l.31.07a.31.31,0,0,1,.25.42c0,.2-.13.45-.2.74h5.9a.31.31,0,0,1,.35.34c0,.2-.12.31-.35.31h-2.89v2.3h2.58a.31.31,0,0,1,.35.35c0,.19-.12.31-.35.31h-2.58v2.71h3.38a.31.31,0,0,1,.34.35.3.3,0,0,1-.34.32h-3.38v2.5a.31.31,0,0,1-.34.34h-.39a.31.31,0,0,1-.35-.34v-2.5h-4.33a.31.31,0,0,1-.34-.34.3.3,0,0,1,.34-.33h1.48v-3a.31.31,0,0,1,.35-.35h2.5v-2.3H113a18.88,18.88,0,0,1-1.41,3.2.28.28,0,0,1-.48.08l-.23-.19A.33.33,0,0,1,110.73,143.08Zm4.38.31H113.3v2.71h1.81Zm6.66-4a6.9,6.9,0,0,1,1.29,2.26,9,9,0,0,1,.54,3.07,8.16,8.16,0,0,1-1.85,5.36.47.47,0,0,1-.42.2h-.07c-.29,0-.38-.17-.21-.42a9.59,9.59,0,0,0,0-10.27c-.17-.25-.08-.42.21-.42h.07A.51.51,0,0,1,121.77,139.38Zm15.82-.39h6.33a.31.31,0,0,1,.34.35V148c0,1.32-.16,1.49-1.37,1.49l-1.43-.05a.33.33,0,0,1-.36-.35c0-.22.11-.34.36-.33l1.26.05c.5,0,.48,0,.48-.81v-2.34h-5a7.17,7.17,0,0,1-1.5,3.78.3.3,0,0,1-.48,0l-.16-.15c-.17-.15-.22-.28-.13-.39.93-1.26,1.29-2.73,1.29-5.43v-4.16A.32.32,0,0,1,137.59,139Zm.72,3.56v1.29a11.4,11.4,0,0,1-.05,1.18h4.94v-2.47Zm0-.63h4.89v-2.28h-4.89Zm21.18,7.57h-.37a.32.32,0,0,1-.35-.35v-9.67a.32.32,0,0,1,.35-.35h6.73a.31.31,0,0,1,.34.35v9.67a.31.31,0,0,1-.34.35h-.38a.31.31,0,0,1-.34-.35v-.44h-5.29v.44A.31.31,0,0,1,159.49,149.49Zm.35-6h5.29v-3.67h-5.29Zm0,.65v3.94h5.29v-3.94Zm16,3.58a.3.3,0,0,1,.06.44l-.31.42a.26.26,0,0,1-.44,0,12.49,12.49,0,0,0-2-1.52,2.09,2.09,0,0,1-2.53,2.05c-.81,0-2.29-.59-2-2,.25-1.14,1.59-1.26,2.39-1.26a4.36,4.36,0,0,1,1.12.13V143.3h-3.1a.28.28,0,0,1-.31-.31h0a.28.28,0,0,1,.31-.31h3.09v-1.8h-3.44a.28.28,0,0,1-.31-.31v0a.28.28,0,0,1,.31-.31h3.44V139a.3.3,0,0,1,.31-.33h.44a.28.28,0,0,1,.31.31v1.24h2.47a.28.28,0,0,1,.31.31v0a.28.28,0,0,1-.31.31H173.2v1.8h2.15a.28.28,0,0,1,.31.31h0a.28.28,0,0,1-.31.31h-2.16v2.89A11.1,11.1,0,0,1,175.83,147.69Zm-6.31-.45c-.09.74.57,1,1.11,1a1.25,1.25,0,0,0,1.43-.85,2.07,2.07,0,0,0,.06-.61,2.82,2.82,0,0,0-1.09-.25C170.53,146.49,169.59,146.57,169.52,147.24Zm16.28-7.14h0a.29.29,0,0,1-.31.32l-.8,0a1.87,1.87,0,0,0-.42,0,3.08,3.08,0,0,0-1.27.42,4.69,4.69,0,0,0-1.87,4.38c.17,2.18,1.78,3,3.47,3a.28.28,0,0,1,.31.31v.1a.29.29,0,0,1-.32.31c-2,0-4.22-.79-4.65-3.31a4.84,4.84,0,0,1,2.5-5.2l-4.81.14a.27.27,0,0,1-.31-.3h0a.3.3,0,0,1,.31-.33l7.86-.22A.27.27,0,0,1,185.8,140.1Zm-1.1,3c0,.21-.12.31-.34.31h0c-.22,0-.32-.1-.32-.31v-1.37c0-.21.1-.31.32-.31h0c.22,0,.34.1.34.31Zm1.07,0c0,.21-.1.31-.33.31h0c-.21,0-.34-.1-.34-.31v-1.37c0-.21.13-.31.34-.31h0c.23,0,.33.1.33.31Zm1.92,2.06c-.2.18-.39.13-.49-.12l-.06-.18a.39.39,0,0,1,.11-.47,10.06,10.06,0,0,0,2.76-4.14H187.6a.32.32,0,0,1-.35-.35c0-.18.13-.28.35-.28h2.63c.09-.26.17-.56.27-.91a.33.33,0,0,1,.4-.28l.36,0c.24,0,.34.18.27.4a5.62,5.62,0,0,1-.22.76h4.93a.31.31,0,0,1,.34.34c0,.19-.12.29-.34.29H191.1a12.54,12.54,0,0,1-.73,1.62h5.12a.32.32,0,0,1,.35.35v5.9c0,1.14-.15,1.27-1.39,1.27-.26,0-.7,0-1.28-.05a.34.34,0,0,1-.35-.36c0-.18.14-.28.38-.27a7.17,7.17,0,0,0,1.15.05.42.42,0,0,0,.4-.46V147h-4.64v2.08a.32.32,0,0,1-.35.35h-.39a.31.31,0,0,1-.34-.35v-5.26A15.33,15.33,0,0,1,187.69,145.17Zm2.42-1h4.64v-1.67h-4.64Zm0,.57v1.71h4.64v-1.71Zm7.38,4a9.31,9.31,0,0,0,2.07-2.66c-.4-.62-.76-1.15-1.07-1.57a.37.37,0,0,1,0-.49l.12-.12a.28.28,0,0,1,.49,0c.36.46.65.86.89,1.23a9.55,9.55,0,0,0,.49-1.55.29.29,0,0,1,.45-.23l.31.15a.34.34,0,0,1,.19.45,11.48,11.48,0,0,1-.82,2.1c.38.58.7,1.11,1,1.6a.37.37,0,0,1-.06.47l-.21.21c-.18.19-.36.15-.49-.08-.26-.49-.49-.91-.7-1.26a9.33,9.33,0,0,1-2.2,2.44.29.29,0,0,1-.48-.11l-.05-.1A.34.34,0,0,1,197.49,148.71Zm2.24-10.14h.36a.32.32,0,0,1,.35.35v1h1.7a.32.32,0,0,1,.35.35c0,.2-.13.31-.35.31h-4.41a.31.31,0,0,1-.34-.34.3.3,0,0,1,.34-.32h1.65v-1A.32.32,0,0,1,199.73,138.57Zm-.12,3.09a10.22,10.22,0,0,1-1.5,2.35.29.29,0,0,1-.5,0l-.11-.13a.35.35,0,0,1,0-.49,10,10,0,0,0,1.25-2.14.29.29,0,0,1,.48-.15l.22.15A.33.33,0,0,1,199.61,141.66Zm1.7-.49a22.76,22.76,0,0,1,1.23,2.22.37.37,0,0,1-.1.47l-.2.17c-.19.17-.37.13-.47-.11a17.48,17.48,0,0,0-1.22-2.3.31.31,0,0,1,.1-.48l.16-.11C201,140.9,201.17,140.94,201.31,141.17Zm2.86,7.38a6.77,6.77,0,0,0,.92.06c.1,0,.19-.06.31-.44a10.29,10.29,0,0,0,.21-1.92c.06-1,.08-2.57.08-4.66h-1.34c-.15,3.93-.72,5.95-2.11,7.78-.14.18-.32.18-.49,0l-.16-.2a.38.38,0,0,1,0-.49c1.08-1.55,1.6-3.41,1.73-7.09h-1a.32.32,0,0,1-.35-.35c0-.2.12-.31.35-.31h1c0-.57,0-1.22,0-1.9a.31.31,0,0,1,.34-.35h.35a.32.32,0,0,1,.35.35c0,.67,0,1.29,0,1.9h2a.32.32,0,0,1,.35.36c0,2.48,0,4.07-.1,5.31,0,.63-.07,1.13-.13,1.51-.09.61-.34,1-.67,1.12a1.4,1.4,0,0,1-.5.07,10.2,10.2,0,0,1-1.4-.1.33.33,0,0,1-.34-.36h0C203.6,148.6,203.81,148.5,204.17,148.55ZM40,149.44v-.95a6.19,6.19,0,0,1,.7-2A12.26,12.26,0,0,1,42,144.73l.25-.31a10.82,10.82,0,0,0,.91-1.19,2.78,2.78,0,0,0,.38-1.4,2.16,2.16,0,0,0-.23-1,1.2,1.2,0,0,0-1.11-.67c-.66,0-1.19.43-1.59,1.31l-.72-.58a2.82,2.82,0,0,1,.77-1.08,2.44,2.44,0,0,1,1.6-.59,2.18,2.18,0,0,1,1.87.92,2.79,2.79,0,0,1,.49,1.66,3.76,3.76,0,0,1-.5,1.82,11.61,11.61,0,0,1-.94,1.16l-.23.29-.31.37a7.93,7.93,0,0,0-1.1,1.66,3.89,3.89,0,0,0-.43,1.36h3.57v1Zm8.22-10.26q2.45,0,2.45,5.25c0,3.5-.82,5.24-2.46,5.24s-2.44-1.74-2.44-5.24S46.59,139.18,48.23,139.18Zm0,.92c-.9,0-1.36,1.46-1.36,4.37s.46,4.26,1.37,4.26,1.38-1.43,1.38-4.29S49.14,140.1,48.21,140.1Zm4-.71h3.89v.94h-3l-.19,3.46H53a1.48,1.48,0,0,1,1.31-.68,1.85,1.85,0,0,1,1.61,1,4,4,0,0,1,.55,2.22,4.41,4.41,0,0,1-.46,2.08,2.2,2.2,0,0,1-2,1.26,2.79,2.79,0,0,1-2.23-1.13l.59-.72a2.07,2.07,0,0,0,1.65.89,1.17,1.17,0,0,0,1-.51,3.16,3.16,0,0,0,.5-1.9,3.64,3.64,0,0,0-.31-1.6,1.11,1.11,0,0,0-1-.72,1.14,1.14,0,0,0-.81.38,2,2,0,0,0-.45.75l-.89-.17Zm7.82-.21q2.45,0,2.45,5.25c0,3.5-.82,5.24-2.46,5.24s-2.44-1.74-2.44-5.24S58.38,139.18,60,139.18Zm0,.92c-.9,0-1.35,1.46-1.35,4.37s.45,4.26,1.37,4.26,1.37-1.43,1.37-4.29S60.92,140.1,60,140.1Zm38.7,9.34v-.95a6.19,6.19,0,0,1,.7-2,12.26,12.26,0,0,1,1.25-1.73l.25-.31a10.82,10.82,0,0,0,.91-1.19,2.78,2.78,0,0,0,.38-1.4,2.16,2.16,0,0,0-.23-1,1.2,1.2,0,0,0-1.11-.68c-.66,0-1.19.44-1.58,1.32l-.73-.58a2.82,2.82,0,0,1,.77-1.08,2.44,2.44,0,0,1,1.6-.59,2.18,2.18,0,0,1,1.87.92,2.72,2.72,0,0,1,.49,1.66,3.76,3.76,0,0,1-.5,1.82,11.61,11.61,0,0,1-.94,1.16l-.23.29-.31.37a7.93,7.93,0,0,0-1.1,1.66,3.89,3.89,0,0,0-.43,1.36h3.58v1Zm6.84-5.14a2.18,2.18,0,0,1,.76-.9,1.51,1.51,0,0,1,.87-.29,1.82,1.82,0,0,1,1.5.8,3.7,3.7,0,0,1,.67,2.32,4.25,4.25,0,0,1-.66,2.53,2,2,0,0,1-1.64.88,2.07,2.07,0,0,1-1.89-1.28,7.41,7.41,0,0,1-.61-3.39,6.65,6.65,0,0,1,1.07-3.62,5.86,5.86,0,0,1,2.3-2.14l.46.77a5.26,5.26,0,0,0-2,2,5.32,5.32,0,0,0-.83,2.35Zm1.51-.38a1.18,1.18,0,0,0-1,.76,3.16,3.16,0,0,0-.35,1.52A4.07,4.07,0,0,0,106,148a1.09,1.09,0,0,0,1,.74,1,1,0,0,0,.9-.63,4.16,4.16,0,0,0,.35-1.82,3.11,3.11,0,0,0-.44-1.86A1,1,0,0,0,107,143.92Zm41.82-4.74q2.44,0,2.44,5.25c0,3.5-.82,5.24-2.46,5.24s-2.44-1.74-2.44-5.24S147.22,139.18,148.86,139.18Zm0,.92c-.91,0-1.36,1.46-1.36,4.36s.46,4.27,1.37,4.27,1.37-1.43,1.37-4.29S149.76,140.1,148.84,140.1Zm5.6,9.34v-8.92a9,9,0,0,1-1.58.72l-.2-.85a7,7,0,0,0,2-1.06h.77v10.11Zm-27.23-10.26q2.45,0,2.45,5.25c0,3.5-.82,5.24-2.46,5.24s-2.44-1.74-2.44-5.24S125.58,139.18,127.21,139.18Zm0,.92c-.9,0-1.35,1.46-1.35,4.36s.45,4.27,1.37,4.27,1.37-1.43,1.37-4.29S128.12,140.1,127.19,140.1Zm5.61,9.34v-8.92a9.34,9.34,0,0,1-1.58.72l-.2-.85a6.93,6.93,0,0,0,2-1.06h.77v10.11Z" transform="translate(-22.25 -67.7)"/><path d="M272.11,83h4.23a.21.21,0,0,1,.23.23V89c0,.88-.11,1-.92,1l-.95,0c-.15,0-.24-.08-.24-.23s.07-.23.24-.22l.84,0c.33,0,.32,0,.32-.54V87.46h-3.33a4.73,4.73,0,0,1-1,2.53.19.19,0,0,1-.32,0l-.11-.1c-.11-.1-.14-.18-.08-.26a5.63,5.63,0,0,0,.86-3.63V83.24A.21.21,0,0,1,272.11,83Zm.48,2.38v.86c0,.28,0,.53,0,.79h3.3V85.39Zm0-.42h3.27V83.44h-3.27ZM300.21,90H300a.22.22,0,0,1-.24-.24V83.33a.21.21,0,0,1,.24-.23h4.49a.21.21,0,0,1,.23.23v6.46a.21.21,0,0,1-.23.24h-.25a.21.21,0,0,1-.23-.24V89.5h-3.53v.29A.22.22,0,0,1,300.21,90Zm.24-4H304V83.54h-3.53Zm0,.43v2.63H304V86.43Zm8-3.41a.21.21,0,0,1,.24-.23h.25a.21.21,0,0,1,.23.23v1.12h2.09a.23.23,0,1,1,0,.46h-2.09v1.92h1.75a.21.21,0,0,1,.23.23.21.21,0,0,1-.23.21h-1.75v2.39h2.34a.21.21,0,0,1,.23.24c0,.14-.08.21-.23.21h-5.59a.21.21,0,0,1-.24-.23.21.21,0,0,1,.24-.22h2.53V87h-1.67a.21.21,0,0,1-.23-.23c0-.14.08-.21.23-.21h1.67V84.6h-1.53a14.82,14.82,0,0,1-.63,1.74c-.06.15-.17.18-.32.1l-.17-.12a.23.23,0,0,1-.1-.31,14.53,14.53,0,0,0,.86-2.85.21.21,0,0,1,.28-.18l.21,0c.15,0,.23.11.2.21-.05.26-.11.55-.21.91h1.41Zm-91,.29c0-.14.08-.21.23-.21h5.36a.21.21,0,0,1,.23.23c0,.13-.08.2-.23.2h-2.33v3.3h2.6a.21.21,0,0,1,.23.24c0,.15-.08.22-.23.22h-2.6v2.59a.21.21,0,0,1-.23.23h-.25a.21.21,0,0,1-.23-.23V87.29h-2.59a.23.23,0,1,1,0-.46H220v-3.3h-2.32A.2.2,0,0,1,217.46,83.31Zm1.07.87c.3.54.56,1,.79,1.56a.23.23,0,0,1-.1.32l-.14.09c-.15.08-.25,0-.32-.1-.27-.61-.53-1.13-.77-1.57a.21.21,0,0,1,.08-.32l.13-.09A.22.22,0,0,1,218.53,84.18Zm2.92,1.58a11.91,11.91,0,0,0,.76-1.56c.06-.16.17-.2.31-.12l.17.09a.23.23,0,0,1,.11.31,10.15,10.15,0,0,1-.82,1.6.2.2,0,0,1-.32.07l-.13-.09A.2.2,0,0,1,221.45,85.76Zm5.8-2.81a.21.21,0,0,1,.23-.23h.22a.22.22,0,0,1,.24.23c0,.25,0,.51,0,.81h1.84A.21.21,0,0,1,230,84a.2.2,0,0,1-.23.21H228a15.37,15.37,0,0,0,.48,2.91,9,9,0,0,0,.67-2,.19.19,0,0,1,.28-.17l.21.07a.21.21,0,0,1,.15.29,7.59,7.59,0,0,1-1.06,2.6,6.4,6.4,0,0,0,.68,1.3c.14.18.35-.17.41-1.16,0-.18.12-.25.27-.19l.22.08a.25.25,0,0,1,.17.29c-.12,1.18-.38,1.77-.86,1.77s-.94-.56-1.35-1.46a5,5,0,0,1-1.7,1.34.22.22,0,0,1-.31-.12v0a.2.2,0,0,1,.1-.31A4.75,4.75,0,0,0,228,87.9a12.86,12.86,0,0,1-.71-3.7h-2v1h1.61a.22.22,0,0,1,.24.24A18.84,18.84,0,0,1,227,88c-.1.53-.44.5-.77.5l-.66,0a.23.23,0,0,1-.22-.24c0-.14.07-.2.24-.18l.46,0c.16,0,.24-.06.3-.34s.06-.88.06-2h-1.16v.31a9.73,9.73,0,0,1-.68,4c-.09.16-.22.17-.33,0l-.17-.24a.31.31,0,0,1,0-.32,10.72,10.72,0,0,0,.51-3.82V84a.21.21,0,0,1,.23-.23h2.47C227.26,83.45,227.25,83.2,227.25,83Zm1.5-.35c.32.2.61.4.87.59a.22.22,0,0,1,0,.32l0,0a.21.21,0,0,1-.33,0c-.37-.27-.65-.45-.87-.59a.22.22,0,0,1-.07-.33h0C228.47,82.52,228.59,82.51,228.75,82.6Zm12.77,3.14a12.17,12.17,0,0,0,1.11-2.85.21.21,0,0,1,.28-.18l.21.05c.15,0,.21.14.16.29s-.08.29-.13.49h3.95a.21.21,0,0,1,.23.23c0,.13-.08.2-.23.2h-1.93v1.54h1.72a.21.21,0,0,1,.23.23.2.2,0,0,1-.23.21h-1.72v1.81h2.25a.21.21,0,0,1,.23.23c0,.15-.08.22-.23.22h-2.25v1.67a.21.21,0,0,1-.24.23h-.25a.21.21,0,0,1-.23-.23V88.21h-2.9a.21.21,0,0,1-.23-.23.2.2,0,0,1,.23-.22h1v-2a.21.21,0,0,1,.23-.23h1.68V84H243a12.65,12.65,0,0,1-.94,2.14.19.19,0,0,1-.33,0l-.14-.12A.22.22,0,0,1,241.52,85.74Zm2.93.21h-1.21v1.81h1.21Zm47.44-3.09c1.09,0,1.64,1.17,1.64,3.51s-.55,3.5-1.64,3.5-1.64-1.16-1.64-3.5S290.8,82.86,291.89,82.86Zm0,.62q-.9,0-.9,2.91c0,1.9.3,2.85.91,2.85s.92-.95.92-2.86S292.5,83.48,291.88,83.48Zm3.74,6.24v-6a6,6,0,0,1-1.05.48l-.13-.57a4.57,4.57,0,0,0,1.35-.71h.51v6.76Zm-32.1-6.86c1.09,0,1.64,1.17,1.64,3.51s-.55,3.5-1.65,3.5-1.63-1.16-1.63-3.5S262.43,82.86,263.52,82.86Zm0,.62c-.6,0-.91,1-.91,2.91s.31,2.85.92,2.85.92-.95.92-2.86S264.13,83.48,263.51,83.48Zm3.74,6.24v-6a6.75,6.75,0,0,1-1.05.48l-.13-.57a4.57,4.57,0,0,0,1.35-.71h.51v6.76Zm-33.32-6.86c1.09,0,1.64,1.17,1.64,3.51s-.55,3.5-1.64,3.5-1.64-1.16-1.64-3.5S232.84,82.86,233.93,82.86Zm0,.62q-.9,0-.9,2.91c0,1.9.3,2.85.91,2.85s.92-.95.92-2.86S234.54,83.48,233.92,83.48Zm3.74,6.24v-6a6,6,0,0,1-1,.48l-.13-.57a4.57,4.57,0,0,0,1.35-.71h.51v6.76Z" transform="translate(-22.25 -67.7)"/><path d="M40.58,161.82c0,.05-.06.09-.15.1-.19.82-.46,1.46-2,1.82a2,2,0,0,0-.39-.62c1.37-.25,1.58-.7,1.67-1.39Zm1.25,1c0,.18,0,.21.24.21h.57c.19,0,.23-.1.25-.75a1.81,1.81,0,0,0,.65.28c-.08.89-.27,1.12-.83,1.12H42c-.68,0-.85-.21-.85-.85v-1.17H38.68v-1.44l-.15.1a2.07,2.07,0,0,0-.48-.54,4.2,4.2,0,0,0,1.63-1.58l.85.16c0,.06-.07.09-.15.09l-.11.17h1.18l.11,0,.56.33A.17.17,0,0,1,42,159a5.2,5.2,0,0,1-.47.66h1.55v2H41.83Zm-2.45-2.56v.78h1.08v-.78Zm1.31-.61a5.66,5.66,0,0,0,.34-.47H39.84a3.84,3.84,0,0,1-.44.47Zm1.64,1.39v-.78H41.14v.78Zm3.94-1.84v.55H43.88v-.55ZM46,161.63v1.78H44.75v.23h-.61v-2Zm-1.86-1.08V160H46v.53Zm0,.8v-.52H46v.52Zm1.89-2.93V159H44.19v-.53Zm-.64,3.76h-.66v.68h.66Zm4-1.22v.67H48.19v2.09h-.7v-2.09H46.25V161h1.24v-1.27h-.33a4.39,4.39,0,0,1-.52,1,3.16,3.16,0,0,0-.56-.36,5.82,5.82,0,0,0,.78-2.15l.81.19c0,.05-.07.08-.16.08,0,.19-.08.37-.13.56H49.2v.64h-1V161Zm3.56-1.34a.22.22,0,0,1-.18.1c-.23,2-.82,3.13-1.81,3.13-.64,0-1.09-.53-1.09-1.52a2.57,2.57,0,0,1,2.66-2.58A2.2,2.2,0,0,1,55,161c0,1.36-.7,2.07-2.16,2.44a3.34,3.34,0,0,0-.47-.61c1.33-.26,1.86-.9,1.86-1.82a1.54,1.54,0,0,0-1.72-1.57,1.45,1.45,0,0,0-.3,0ZM52,159.5a1.85,1.85,0,0,0-1.44,1.8c0,.49.14.83.4.83C51.53,162.13,51.91,160.86,52,159.5Z" transform="translate(-22.25 -67.7)"/><path class="cls-7" d="M233.47,234.88a.26.26,0,0,1-.29.12,12.35,12.35,0,0,1-2.63,3.83,7.64,7.64,0,0,0-1.08-.85,9,9,0,0,0,2.47-3.61Zm1.12,3.35c0,.1-.16.15-.32.17a25.57,25.57,0,0,1-1.66,3.42l3.51-.12c-.38-.59-.8-1.19-1.19-1.7l1.17-.53a21.79,21.79,0,0,1,2.3,3.46l-1.24.65c-.1-.23-.24-.5-.4-.79-2.32.16-4.7.28-6.28.36a.21.21,0,0,1-.2.16l-.48-1.41,1.45,0a23.21,23.21,0,0,0,1.74-4.05Zm1.37-3.84a13.58,13.58,0,0,0,2.64,3.43,5.48,5.48,0,0,0-1,1,20.71,20.71,0,0,1-2.84-4Zm12.52,4.82h-1.71a.33.33,0,0,1-.23.09,5.59,5.59,0,0,1-1.13,2.07,17.91,17.91,0,0,1,2.62,1.18l-.94,1a18.35,18.35,0,0,0-2.69-1.31,9.34,9.34,0,0,1-4,1.29,4.79,4.79,0,0,0-.64-1,10.07,10.07,0,0,0,3.28-.78l-1.09-.35-.13.25-1.26-.33c.31-.57.67-1.3,1-2.07h-2.18v-1.13h2.68c.25-.55.48-1.11.68-1.62l1.48.28c0,.1-.11.15-.3.15-.15.38-.33.78-.5,1.19h5Zm-7.6-2.82v1.3h-1.21v-2.4h3.6v-1.14l1.56.07c0,.11-.09.17-.29.2v.87h3.66v2.4h-1.27v-1.3Zm2.06,2.82c-.18.4-.36.79-.54,1.16.57.15,1.17.34,1.79.55a3.82,3.82,0,0,0,1-1.71Zm12.8-2.07a8.7,8.7,0,0,0,2.84,1.16,4.77,4.77,0,0,0-.76,1,8.31,8.31,0,0,1-3.37-1.9v1.47h-.87l.38.1c0,.09-.12.13-.3.12l-.36.58h5.14v1h-2.05a4.16,4.16,0,0,1-.84,1.12c1,.28,1.9.56,2.59.81l-.73,1c-.78-.3-1.82-.65-3-1a12.5,12.5,0,0,1-4.51,1,3.34,3.34,0,0,0-.47-1.05,15.15,15.15,0,0,0,3.25-.42l-.9-.22-.11.15-1.15-.34c.22-.3.49-.66.76-1h-2v-1H252c.24-.37.46-.73.66-1.06l.66.18v-1.41a8.51,8.51,0,0,1-3.41,2,4.63,4.63,0,0,0-.72-.93,8.43,8.43,0,0,0,2.86-1.25h-2.66v-1h3.93v-.68c-1,.07-1.94.1-2.86.11a4.09,4.09,0,0,0-.25-.91,38,38,0,0,0,6.15-.53l.9.85a.23.23,0,0,1-.16.05h-.11a22.62,22.62,0,0,1-2.49.35v.77h4v1ZM252.42,241c.6.13,1.21.27,1.81.42a3.31,3.31,0,0,0,.76-.78h-2.33Zm15.07.81h-1.58c.94.28,2,.65,2.66.92l-1.06.84a27.49,27.49,0,0,0-3.23-1.16l.84-.6H262.4l.8.54a.34.34,0,0,1-.2.07,11.49,11.49,0,0,1-2.94,1.13,8.27,8.27,0,0,0-.9-.86,11.76,11.76,0,0,0,2.57-.88h-1.54v-4.44h7.3Zm-.58-7.33V237h-6.15v-2.52Zm-5.52,3.7v.43h4.86v-.43Zm0,1.19v.43h4.86v-.43Zm0,1.19V241h4.86v-.44Zm4.24-4.49v-.65H262v.65Zm5.8,2.21v-.73a11.54,11.54,0,0,1-1.71,1,4.79,4.79,0,0,0-.69-1,9.93,9.93,0,0,0,4.09-3.4l1.61.07a.28.28,0,0,1-.25.2,9.43,9.43,0,0,0,4.1,2.92,5.63,5.63,0,0,0-.77,1.09,11.71,11.71,0,0,1-1.7-1v.8Zm-1.78,1.94v-1.11H278v1.11h-4.68l.3.1q-.06.12-.3.12a15.51,15.51,0,0,1-.79,1.58l3.13-.08c-.34-.38-.7-.76-1-1.08l1.05-.55a13.27,13.27,0,0,1,2.3,2.58l-1.12.68c-.11-.2-.26-.42-.42-.66-2.25.14-4.56.26-6.08.33a.21.21,0,0,1-.19.16l-.42-1.32,1.47,0a15.81,15.81,0,0,0,.8-1.83Zm6.05-3a9.37,9.37,0,0,1-1.94-1.86,9,9,0,0,1-1.85,1.86Z" transform="translate(-22.25 -67.7)"/><path class="cls-7" d="M290.35,235.09l.61.23a12.76,12.76,0,0,0,2.23-1.16l1.13,1a.32.32,0,0,1-.28.06,17.66,17.66,0,0,1-2.49,1v1.42H294v1.16h-2.42v2h2.5V242h-2.5v.78h-1.2Zm8.32,0v5.76c0,1.2-.57,1.39-2.05,1.39a4.44,4.44,0,0,0-.44-1.25c.28,0,.55,0,.77,0,.46,0,.51,0,.51-.19v-4.55h-1.81v7.26h-1.2v-8.44Z" transform="translate(-22.25 -67.7)"/><path d="M43.42,171.16H41.7a5.07,5.07,0,0,0,1.87.94,2.73,2.73,0,0,0-.46.58,5.21,5.21,0,0,1-2-1.21v1.31h-.71v-1.3a5.33,5.33,0,0,1-1.93,1.24,3.53,3.53,0,0,0-.45-.57,4.94,4.94,0,0,0,1.87-1H38.21v-.61h2.24v-.49l.87.05c0,.06,0,.1-.16.11v.33h2.26Zm-1.26-3.41.52.27a.16.16,0,0,1-.1.08,3.84,3.84,0,0,1-1.06,1.18,8.92,8.92,0,0,0,2,.46,2.47,2.47,0,0,0-.41.62,7.68,7.68,0,0,1-2.29-.67,8.43,8.43,0,0,1-2.35.77,2.83,2.83,0,0,0-.33-.62,7.56,7.56,0,0,0,2-.55,4.07,4.07,0,0,1-.59-.51,6,6,0,0,1-.83.57,2.06,2.06,0,0,0-.49-.53A3.69,3.69,0,0,0,40,167.3l.86.14a.14.14,0,0,1-.15.1l-.17.24H42Zm-2.12.62a3.6,3.6,0,0,0,.78.58,3.15,3.15,0,0,0,.71-.58Zm5.84-.78s-.07.08-.16.07a10,10,0,0,1-.5,1.11l.22.06s-.06.09-.15.1v3.86h-.68v-3c-.16.23-.33.45-.5.65a6.51,6.51,0,0,0-.33-.71,7,7,0,0,0,1.33-2.42Zm3.53,2.64v.67H47.86v1.89h-.71V170.9h-1.6v-.67h1.6v-1.11h-.81a5,5,0,0,1-.39.77,3.87,3.87,0,0,0-.55-.34,6.38,6.38,0,0,0,.75-2l.77.2c0,.06-.08.07-.15.07-.05.2-.11.41-.18.61h.56v-1.08l.87.05c0,.06-.05.1-.16.11v.92h1.35v.66H47.86v1.11Zm5.71-2.48v.57h-1a2.22,2.22,0,0,1,.22.37l-.59.24a4,4,0,0,0-.37-.61H53.1a4.16,4.16,0,0,1-.32.39h.15c0,.06,0,.09-.16.11v.2h1.74v.57H52.77v.32h2.31v.59H54a.23.23,0,0,1-.12.05v.27h.91v.58h-.91v.66c0,.57-.22.71-1.26.71a3.19,3.19,0,0,0-.24-.65h.46c.31,0,.31,0,.31-.09v-.64H51.42a3.49,3.49,0,0,1,.78.65l-.49.45a4.11,4.11,0,0,0-.92-.79l.34-.31h-1v-.58h3v-.32H49.75v-.59h2.3v-.32H50.36V169h1.69v-.36h.24l-.24-.15.21-.21h-.78a2.31,2.31,0,0,1,.17.37l-.6.24a3.26,3.26,0,0,0-.26-.61h-.06a4.57,4.57,0,0,1-.53.7,3.73,3.73,0,0,0-.55-.36,3.62,3.62,0,0,0,.87-1.4l.76.23a.15.15,0,0,1-.15.07l-.09.19h1.29v.49a3.31,3.31,0,0,0,.57-1c.29.08.53.15.76.23,0,0-.07.07-.14.06l-.09.2Z" transform="translate(-22.25 -67.7)"/><path d="M63.37,201.53v.73H62a2.57,2.57,0,0,1,.33.55l-.75.29h1v2H60.15v.46h2.36l.54.07a2.6,2.6,0,0,1,0,.26c-.14,1.94-.29,2.11-1.55,2.11H61.1a2.2,2.2,0,0,0-.26-.86,5.86,5.86,0,0,0,.74,0c.3,0,.37-.11.45-.81H60.15v2h-.92v-1.57a7.29,7.29,0,0,1-2.52,1.48,3.43,3.43,0,0,0-.59-.74,7.34,7.34,0,0,0,2.37-1.14h-.87l-.06.19-.94-.11a20.15,20.15,0,0,0,.52-2.1h2.09v-.5H56.81v-.76h1.07a5.13,5.13,0,0,0-.39-.84h-.12a6.31,6.31,0,0,1-.73.91,4.1,4.1,0,0,0-.72-.48,5,5,0,0,0,1.22-1.83l1,.32a.23.23,0,0,1-.2.09l-.13.26h1.78v.66a4.21,4.21,0,0,0,.77-1.33l1,.3a.18.18,0,0,1-.2.09c0,.09-.08.19-.13.28Zm-4.14,4.06v-.46H57.92c0,.16-.07.32-.1.46ZM58,203.1h3.43a5.1,5.1,0,0,0-.51-.84h-.34a4.57,4.57,0,0,1-.72.83,6,6,0,0,0-.71-.49,2.77,2.77,0,0,0,.35-.34H58.44a3.73,3.73,0,0,1,.26.55Zm3.58,1.26v-.5H60.15v.5Z" transform="translate(-22.25 -67.7)"/><path d="M195.17,205h-4.55q-.08.22-.15.48h2.85l.22,0,.6.15a1.09,1.09,0,0,1-.07.24c-.3,2.41-.65,2.55-2,2.55l-.9,0a1.69,1.69,0,0,0-.33-.9c.54,0,1.13,0,1.36,0a.64.64,0,0,0,.39-.07c.16-.12.29-.47.4-1.11h-2.82a3.22,3.22,0,0,1-.15.41l-1-.15c.18-.43.4-1,.58-1.6h-1.63v-.86h7.23Zm-1.11-3.72v2.48h-5v-2.48Zm-1,1.66v-.83H190v.83Z" transform="translate(-22.25 -67.7)"/><path d="M41.38,206.17H39.86a5.16,5.16,0,0,0,1.69.73,2.77,2.77,0,0,0-.42.55,1.74,1.74,0,0,1-.38-.14v1.92H40.1v-.15H37.84v.17h-.62v-2l-.43.17a2.74,2.74,0,0,0-.4-.5,5.09,5.09,0,0,0,1.62-.79H36.53v-.53h1a3.91,3.91,0,0,0-.32-.55l.26-.09H37a2.09,2.09,0,0,0-.13-.49,25.18,25.18,0,0,0,3.72-.32l.42.48a.11.11,0,0,1-.08,0h-.06c-.24,0-.5.08-.79.11l.72.23c0,.05-.07.06-.15.06a5.35,5.35,0,0,1-.34.54h1.09Zm-2.77.2a5.27,5.27,0,0,1-1,.74h2.75a5,5,0,0,1-1.07-.77V207h-.64Zm0,1.51v-.29h-.79v.29Zm-.79.42v.3h.79v-.3Zm.77-2.66V205l-.73,0a2.17,2.17,0,0,1,.33.55l-.25.1Zm1.49,2.24v-.29h-.86v.29Zm-.86.72h.86v-.3h-.86Zm.59-3-.19-.07a5.22,5.22,0,0,0,.37-.75l-.76.08v.74Zm8.28,1.29H45c0,.1-.07.21-.11.32h2l.14,0,.42.11a1,1,0,0,1,0,.16c-.2,1.65-.45,1.75-1.37,1.75l-.61,0a1.24,1.24,0,0,0-.23-.61c.37,0,.77,0,.93,0a.44.44,0,0,0,.27-.05c.11-.08.2-.32.27-.76H44.69c0,.1-.07.2-.1.29l-.7-.11c.12-.29.26-.7.39-1.09H43.16v-.59h5Zm-.76-2.55v1.7H43.93v-1.7Zm-.67,1.14V205H44.56v.57Z" transform="translate(-22.25 -67.7)"/><path d="M36.54,243.87h4.83v.69H36.54Zm.45-3.09h3.93v.69H37Zm7.5,1.56c.15.14.59.63.69.76l-.37.5a3.87,3.87,0,0,0-.32-.57v2.09h-.62v-1.9a4.58,4.58,0,0,1-.52,1,3.93,3.93,0,0,0-.3-.62,5.11,5.11,0,0,0,.73-1.46h-.65v-.59h.74V241l-.59.14a2.24,2.24,0,0,0-.19-.46,6,6,0,0,0,1.62-.61l.5.47a.22.22,0,0,1-.14,0,5.7,5.7,0,0,1-.58.24v.82h.6v.59h-.6Zm2.37,2.17h1.32V245h-3.3v-.51h1.37v-.25H45.18v-.49h1.07v-.21h-1v-1.82h1v-.2H45.07V241h1.18v-.29l-.94.06a1.36,1.36,0,0,0-.15-.47,13.43,13.43,0,0,0,2.32-.3l.46.46s0,0-.08,0h0c-.27.05-.59.11-1,.15V241H48.1v.5H46.86v.2h1v1.82h-1v.21H48v.49h-1.1Zm-1-2.31v.24h.41v-.24Zm0,.91h.41v-.25h-.41Zm1.45-.91h-.43v.24h.43Zm0,.91v-.25h-.43v.25Z" transform="translate(-22.25 -67.7)"/><path d="M41.23,229.08a.14.14,0,0,1-.15.06c-.13.33-.27.66-.42,1l.18.06s-.05.08-.14.09v3.64h-.63v-2.74a6.71,6.71,0,0,1-.43.58,4.33,4.33,0,0,0-.3-.66,6.9,6.9,0,0,0,1.18-2.25Zm.74,3.75c0,.34.05.39.42.39h1.18c.33,0,.39-.12.44-.69a1.79,1.79,0,0,0,.59.24c-.1.77-.29,1-1,1H42.36c-.8,0-1-.2-1-1v-1.46l-.41.14-.2-.57.61-.2v-1.47l.77,0c0,.05,0,.08-.14.1v1.11l.57-.19v-1.42l.75,0c0,.06,0,.09-.13.11v1.06l.66-.22.11-.08.51.19a.29.29,0,0,1-.08.08c0,.95,0,1.62,0,1.84,0,.41-.2.61-.95.59a1.82,1.82,0,0,0-.14-.6h.35c.08,0,.11,0,.13-.12s0-.46,0-1.26l-.59.21v1.85h-.62V231l-.57.2Z" transform="translate(-22.25 -67.7)"/><path d="M35.81,221.52h3v.42h-3Zm.28-1.9H38.5V220H36.09Zm4,1.1a.32.32,0,1,1-.32-.32A.32.32,0,0,1,40.1,220.72Zm1.61-.65a.07.07,0,0,1-.09.05,4.32,4.32,0,0,1-.55,1.42,2.1,2.1,0,0,0-.39-.21,3.2,3.2,0,0,0,.51-1.36Zm.35-.86.53,0s0,.06-.09.07v2.49c0,.41-.15.49-.92.49a1.74,1.74,0,0,0-.16-.41h.45c.15,0,.19,0,.19-.08Zm1.39,2.39a6.13,6.13,0,0,0-.59-1.52l.39-.15a5.81,5.81,0,0,1,.63,1.5Zm1.62-.88a.32.32,0,1,1-.32-.32A.32.32,0,0,1,45.07,220.72Zm3.37.45h-.73v.73c0,.35-.14.39-.69.39a2.47,2.47,0,0,0-.11-.36h.24c.17,0,.18,0,.18-.05v-.72h-.74v-1.23h.61a2.56,2.56,0,0,0,0-.27h-.91v.63a4.71,4.71,0,0,1-.34,2,1.51,1.51,0,0,0-.35-.2,4.1,4.1,0,0,0,.3-1.78v-1h2.79v.36h-1c0,.08-.06.18-.1.27h.84Zm-1.24.23a.1.1,0,0,1-.09,0,2.4,2.4,0,0,1-.62.69,1.66,1.66,0,0,0-.3-.22,2,2,0,0,0,.58-.64ZM47,220.23v.18h1.09v-.18Zm0,.46v.18h1.09v-.18Zm1.51,1.42a3.5,3.5,0,0,0-.59-.67l.3-.19a4.13,4.13,0,0,1,.62.65Z" transform="translate(-22.25 -67.7)"/><path class="cls-8" d="M217.27,151.51v3.88c.72,1.23,2,1.23,4.26,1.23,1.43,0,3.15,0,4.3-.13a6.76,6.76,0,0,0-.46,1.4c-.91.05-2.23.08-3.45.08-2.77,0-4.15,0-5.25-1.39-.48.47-1,.93-1.42,1.29,0,.14,0,.19-.15.25l-.71-1.51a16.94,16.94,0,0,0,1.5-1.11v-2.65h-1.36v-1.34Zm-1.58-4.4A10.51,10.51,0,0,1,217.6,149l-1.19.9a9.77,9.77,0,0,0-1.83-2Zm5.13,9.28v-.86h-3.15v-1.05h3.15V154h-2.38v-3.56h2.38V150h-2.71v-1h2.71v-.73l1.72.09c0,.12-.1.2-.31.23V149H225v1h-2.76v.44h2.44V154h-2.44v.47h3.29v1.05h-3.29v.86Zm-1.73-8.27v.63h-1.28v-1.66h7.55v1.66H224v-.63Zm.59,3.22v.47h1.14v-.47Zm0,1.78h1.14v-.48h-1.14Zm3.7-1.78h-1.15v.47h1.15Zm0,1.78v-.48h-1.15v.48ZM220,171.23h-2v1.93H216.6v-1.93h-2.15V170h2.15v-.71h-1.72v-4.38h1.72v-.66h-2V163h2v-1.15l1.67.1c0,.12-.1.18-.31.22V163h1.92v1.25H218v.66h1.79v4.38h-1.82V170h2Zm-4-5.33v.72h.75v-.72Zm0,1.65v.73h.75v-.73Zm2.61-.93v-.72h-.8v.72Zm0,1.66v-.73h-.8v.73Zm5.85.53a15.13,15.13,0,0,1,1.47,3.78l-1.31.55c0-.24-.11-.5-.18-.79-1.51.19-3,.36-4,.47a.24.24,0,0,1-.21.19l-.46-1.58,1-.06a34.42,34.42,0,0,0,.74-3.79H220v-1.36h5.82v1.36H223c-.2,1.15-.52,2.58-.84,3.7l1.93-.13a18.7,18.7,0,0,0-.8-1.85Zm.88-6.26v1.37h-4.78v-1.37Zm-5.7,21.72c0,.1-.13.18-.31.21-.39,1.69-1,3-4.16,3.76a4.6,4.6,0,0,0-.81-1.28c2.84-.52,3.26-1.46,3.46-2.89Zm2.6,2.08c0,.39.07.45.49.45h1.18c.38,0,.46-.22.51-1.55a3.94,3.94,0,0,0,1.34.57c-.16,1.83-.54,2.32-1.72,2.32h-1.54c-1.42,0-1.77-.44-1.77-1.76V184h-5v-3l-.33.2a4.39,4.39,0,0,0-1-1.12,8.78,8.78,0,0,0,3.36-3.26l1.77.32c0,.12-.13.19-.31.19l-.22.34h2.44l.22-.07,1.16.67a.39.39,0,0,1-.26.17,15,15,0,0,1-1,1.37h3.21V184h-2.56Zm-5.09-5.29v1.6h2.24v-1.6Zm2.72-1.27a11.14,11.14,0,0,0,.69-1H218.1a10.12,10.12,0,0,1-.91,1Zm3.39,2.87v-1.6h-2.47v1.6Zm-3.85,11.21V195h-5v-1.15Zm-.52,5v3.68h-2.64v.47H215V198.9ZM215,196.66v-1.09h3.9v1.09Zm0,1.65v-1.08h3.9v1.08Zm3.91-6.06v1.09H215.1v-1.09ZM217.62,200h-1.38v1.39h1.38Zm8.19-2.52v1.37h-2.44v4.32h-1.46v-4.32h-2.56v-1.37h2.56v-2.65h-.67a9.17,9.17,0,0,1-1.07,2.15,6.85,6.85,0,0,0-1.17-.74,12.32,12.32,0,0,0,1.63-4.45l1.66.4c0,.1-.15.16-.32.16-.08.39-.18.77-.29,1.16h3.79v1.32h-2.1v2.65Zm-11.37,12.57v-1.15h4.5v1.15Zm4.16,4v3.69h-2.41v.45H215v-4.14Zm-.09-3.39v1.08H215v-1.08Zm-3.5,2.77v-1.09h3.5v1.09Zm3.49-6.19v1.1h-3.42v-1.1Zm-1.14,7.95h-1.17v1.39h1.17Zm6.06,1.24h2.38v1.35H219v-1.35h.76v-5.75l1.64.1c0,.1-.09.19-.3.21v5.44H222v-7.61h-2.68v-1.36h6.25v1.36h-2.15v2.91h2.07v1.35h-2.07Z" transform="translate(-22.25 -67.7)"/><path d="M78.77,200.22q2.45,0,2.44,5.25c0,3.5-.82,5.24-2.46,5.24s-2.44-1.74-2.44-5.24S77.13,200.22,78.77,200.22Zm0,.92c-.91,0-1.36,1.46-1.36,4.36s.46,4.27,1.37,4.27,1.37-1.43,1.37-4.29S79.67,201.14,78.75,201.14Zm8.39,9.34v-8.92a9.19,9.19,0,0,1-1.57.72l-.2-.85a7.06,7.06,0,0,0,2-1.06h.77v10.11Zm6.66,0v-.95a6.13,6.13,0,0,1,.71-2,12.05,12.05,0,0,1,1.25-1.74l.24-.3a10.48,10.48,0,0,0,.91-1.19,2.68,2.68,0,0,0,.38-1.4,2,2,0,0,0-.23-1,1.18,1.18,0,0,0-1.1-.68q-1,0-1.59,1.32l-.72-.58a2.72,2.72,0,0,1,.77-1.08,2.39,2.39,0,0,1,1.59-.59,2.17,2.17,0,0,1,1.87.92,2.72,2.72,0,0,1,.49,1.66,3.74,3.74,0,0,1-.49,1.82c-.09.14-.4.53-.94,1.16l-.24.28-.31.37a7.91,7.91,0,0,0-1.09,1.67,3.5,3.5,0,0,0-.43,1.36h3.57v1Zm9.75-5.75h.72a1.65,1.65,0,0,0,1.33-.57,2.14,2.14,0,0,0,.4-1.38,1.79,1.79,0,0,0-.32-1.07,1.3,1.3,0,0,0-1.12-.55,1.87,1.87,0,0,0-1.62,1.09l-.59-.7a2.67,2.67,0,0,1,1-.93,2.56,2.56,0,0,1,1.32-.37,2.6,2.6,0,0,1,1.9,4.17,2.24,2.24,0,0,1-1.24.71v.05a2.35,2.35,0,0,1,1.95,2.59,3,3,0,0,1-.6,1.91,2.49,2.49,0,0,1-2.1,1,2.82,2.82,0,0,1-2.37-1.4l.62-.71a2,2,0,0,0,1.74,1.15,1.58,1.58,0,0,0,1.27-.67,2.59,2.59,0,0,0-.17-2.92,1.9,1.9,0,0,0-1.39-.51h-.69ZM114,200.37h1.21v6.85h1v.94h-1v2.32h-1v-2.32h-3.56v-.94Zm.26,6.85v-3.09c0-.73,0-1.61.07-2.65h0a18.6,18.6,0,0,1-.88,2.15l-1.77,3.59Zm6-6.79h3.89v.94h-3l-.19,3.46h0a1.48,1.48,0,0,1,1.31-.68,1.86,1.86,0,0,1,1.61.95,4,4,0,0,1,.55,2.23,4.34,4.34,0,0,1-.46,2.07,2.2,2.2,0,0,1-2,1.26,2.78,2.78,0,0,1-2.23-1.12l.58-.72a2.11,2.11,0,0,0,1.66.89,1.17,1.17,0,0,0,1-.51,3.16,3.16,0,0,0,.5-1.9,3.64,3.64,0,0,0-.31-1.6,1.11,1.11,0,0,0-1-.72,1.14,1.14,0,0,0-.81.38,1.86,1.86,0,0,0-.45.75l-.9-.17Zm9.24,4.91a2.24,2.24,0,0,1,.75-.9,1.54,1.54,0,0,1,.87-.29,1.82,1.82,0,0,1,1.5.8,3.7,3.7,0,0,1,.68,2.32,4.25,4.25,0,0,1-.67,2.53,2,2,0,0,1-1.64.88,2.08,2.08,0,0,1-1.89-1.28,7.41,7.41,0,0,1-.61-3.39,6.65,6.65,0,0,1,1.07-3.62,5.82,5.82,0,0,1,2.31-2.14l.46.77a5.26,5.26,0,0,0-2,2,5.41,5.41,0,0,0-.83,2.36ZM131,205a1.18,1.18,0,0,0-1,.76,3.24,3.24,0,0,0-.35,1.52A4.22,4.22,0,0,0,130,209a1.1,1.1,0,0,0,1,.74,1,1,0,0,0,.89-.63,4,4,0,0,0,.35-1.82,3.23,3.23,0,0,0-.43-1.87A1,1,0,0,0,131,205Zm6.23-4.53h4.86v.84a54.1,54.1,0,0,0-2.16,9.21h-1a71.44,71.44,0,0,1,2.1-9.07h-2.78v2.22h-1Zm10,4.92a2.73,2.73,0,0,1-.93-.95,3,3,0,0,1-.36-1.5,2.91,2.91,0,0,1,.53-1.78,2,2,0,0,1,1.72-.89,2.07,2.07,0,0,1,1.71.82,2.77,2.77,0,0,1,.56,1.76,2.71,2.71,0,0,1-.5,1.72,2.25,2.25,0,0,1-.85.73v0a2.72,2.72,0,0,1,1.56,2.64,3,3,0,0,1-.48,1.74,2.48,2.48,0,0,1-3.94.09,3,3,0,0,1-.5-1.78,2.66,2.66,0,0,1,1.48-2.57Zm.91.35a2.26,2.26,0,0,0-1.34,2.24,2.47,2.47,0,0,0,.26,1.17,1.22,1.22,0,0,0,1.13.69,1.23,1.23,0,0,0,1.12-.69,2.53,2.53,0,0,0,0-2.41,2,2,0,0,0-.8-.82l-.23-.13-.12-.05Zm.07-.79a1.85,1.85,0,0,0,.88-.73,2.46,2.46,0,0,0,.35-1.3,2.41,2.41,0,0,0-.28-1.21,1.07,1.07,0,0,0-1-.63,1,1,0,0,0-.84.45,2.37,2.37,0,0,0-.37,1.4,2.27,2.27,0,0,0,.33,1.28,2.11,2.11,0,0,0,.67.63A.88.88,0,0,0,148.17,204.91Zm9.94.93a1.77,1.77,0,0,1-.48.68,1.69,1.69,0,0,1-1.15.44,1.75,1.75,0,0,1-1.48-.84,4,4,0,0,1-.61-2.35,4.59,4.59,0,0,1,.66-2.61,1.93,1.93,0,0,1,1.67-.93,2,2,0,0,1,1.84,1.25,7.82,7.82,0,0,1,.59,3.44,6.89,6.89,0,0,1-1,4.23,5,5,0,0,1-2.74,1.69l-.48-.84a4.32,4.32,0,0,0,2.39-1.37,4.92,4.92,0,0,0,.87-2.79Zm-1.39-4.68a1,1,0,0,0-.73.33,3.26,3.26,0,0,0-.56,2.19,4.19,4.19,0,0,0,.3,1.69,1,1,0,0,0,.93.73,1.07,1.07,0,0,0,.89-.54,2.81,2.81,0,0,0,.25-.54,3.5,3.5,0,0,0,.22-1.22,5.13,5.13,0,0,0-.32-1.84,1.27,1.27,0,0,0-.5-.65A.85.85,0,0,0,156.72,201.16Zm8.87-.94q2.44,0,2.45,5.25c0,3.5-.82,5.24-2.46,5.24s-2.44-1.74-2.44-5.24S164,200.22,165.59,200.22Zm0,.92c-.9,0-1.35,1.46-1.35,4.36s.45,4.27,1.37,4.27,1.37-1.43,1.37-4.29S166.5,201.14,165.57,201.14Zm8.71-.92q2.44,0,2.44,5.25c0,3.5-.82,5.24-2.46,5.24s-2.44-1.74-2.44-5.24S172.64,200.22,174.28,200.22Zm0,.92c-.91,0-1.36,1.46-1.36,4.36s.46,4.27,1.37,4.27,1.37-1.43,1.37-4.29S175.18,201.14,174.26,201.14Z" transform="translate(-22.25 -67.7)"/><path d="M106.07,218.34h4.23a.21.21,0,0,1,.23.23v5.79c0,.88-.11,1-.92,1l-1,0c-.15,0-.24-.08-.24-.23s.07-.23.24-.23l.84,0c.33,0,.32,0,.32-.54v-1.57h-3.33a4.73,4.73,0,0,1-1,2.53.2.2,0,0,1-.32,0l-.11-.1c-.11-.1-.14-.18-.08-.26a5.63,5.63,0,0,0,.86-3.63v-2.78A.21.21,0,0,1,106.07,218.34Zm.48,2.38v.86c0,.28,0,.52,0,.79h3.3v-1.65Zm0-.42h3.27v-1.53h-3.27Zm19.54,5h-.24a.21.21,0,0,1-.24-.23v-6.46a.22.22,0,0,1,.24-.24h4.49a.21.21,0,0,1,.23.24v6.46a.21.21,0,0,1-.23.23h-.25a.21.21,0,0,1-.23-.23v-.3h-3.53v.3A.21.21,0,0,1,126.09,225.35Zm.24-4h3.53v-2.45h-3.53Zm0,.44v2.63h3.53v-2.63Zm-74.91-3.33a.2.2,0,0,1,.23-.22H57a.21.21,0,0,1,.23.23c0,.14-.08.2-.23.2H54.69V222h2.59a.23.23,0,1,1,0,.46H54.69V225a.22.22,0,0,1-.24.24H54.2A.22.22,0,0,1,54,225v-2.58H51.38a.21.21,0,0,1-.23-.24.2.2,0,0,1,.23-.22H54v-3.31H51.65C51.5,218.64,51.42,218.57,51.42,218.43Zm1.07.87c.3.54.56,1,.79,1.56a.22.22,0,0,1-.09.31l-.15.09a.2.2,0,0,1-.32-.1c-.27-.6-.53-1.12-.77-1.56a.23.23,0,0,1,.08-.33l.14-.08C52.29,219.11,52.41,219.15,52.49,219.3Zm2.93,1.58a11.45,11.45,0,0,0,.75-1.57.19.19,0,0,1,.31-.11l.17.09a.22.22,0,0,1,.11.31,12.05,12.05,0,0,1-.81,1.6c-.08.14-.19.15-.33.07l-.13-.09A.19.19,0,0,1,55.42,220.88Zm5.79-2.81a.21.21,0,0,1,.23-.23h.22a.21.21,0,0,1,.24.23c0,.25,0,.51,0,.8h1.84a.21.21,0,0,1,.23.24c0,.13-.08.2-.23.2H62a14.34,14.34,0,0,0,.49,2.91,9.28,9.28,0,0,0,.66-2,.19.19,0,0,1,.28-.17l.21.07a.23.23,0,0,1,.16.29,7.9,7.9,0,0,1-1.07,2.6,6.51,6.51,0,0,0,.68,1.29c.14.19.35-.16.41-1.15,0-.18.12-.26.27-.2l.22.08a.26.26,0,0,1,.17.29c-.12,1.18-.38,1.78-.86,1.78s-.94-.56-1.35-1.46a5,5,0,0,1-1.7,1.33.22.22,0,0,1-.31-.11v0a.2.2,0,0,1,.1-.31A4.69,4.69,0,0,0,62,223a12.79,12.79,0,0,1-.71-3.7h-2v1h1.61a.22.22,0,0,1,.24.24,18.62,18.62,0,0,1-.1,2.49c-.09.53-.44.51-.77.51l-.66,0c-.14,0-.22-.1-.22-.24s.07-.2.24-.19a2.68,2.68,0,0,0,.46,0c.16,0,.24-.07.3-.34s.06-.88.06-2H59.23v.31a9.68,9.68,0,0,1-.68,3.94c-.09.17-.22.18-.33,0l-.17-.24a.33.33,0,0,1,0-.32,10.53,10.53,0,0,0,.51-3.82v-1.54a.22.22,0,0,1,.23-.24h2.48C61.22,218.57,61.21,218.31,61.21,218.07Zm1.5-.36c.32.2.61.4.87.59a.22.22,0,0,1,.05.33l0,0a.21.21,0,0,1-.33,0c-.37-.27-.65-.46-.87-.6a.21.21,0,0,1-.07-.32h0Q62.47,217.58,62.71,217.71ZM82,220.86A13,13,0,0,0,83.14,218a.21.21,0,0,1,.28-.17l.21,0a.2.2,0,0,1,.16.28c0,.13-.08.3-.13.49h4a.21.21,0,0,1,.23.23c0,.14-.08.21-.23.21H85.67v1.53H87.4a.21.21,0,0,1,.23.24c0,.13-.08.2-.23.2H85.67v1.82h2.26a.21.21,0,0,1,.23.23.2.2,0,0,1-.23.22H85.67V225a.21.21,0,0,1-.23.24h-.25A.22.22,0,0,1,85,225v-1.66H82.06a.21.21,0,0,1-.23-.24c0-.14.08-.21.23-.21h1v-2a.21.21,0,0,1,.23-.24H85v-1.53H83.51a13,13,0,0,1-.94,2.14.19.19,0,0,1-.33.05l-.15-.13A.21.21,0,0,1,82,220.86Zm2.92.2H83.74v1.82H85Z" transform="translate(-22.25 -67.7)"/><path d="M106.07,229.42h4.23a.21.21,0,0,1,.23.24v5.78c0,.88-.11,1-.92,1l-1,0a.21.21,0,0,1-.24-.23c0-.15.07-.23.24-.22l.84,0c.33,0,.32,0,.32-.54v-1.56h-3.33a4.73,4.73,0,0,1-1,2.52.19.19,0,0,1-.32,0l-.11-.1c-.11-.1-.14-.18-.08-.26a5.63,5.63,0,0,0,.86-3.63v-2.77A.21.21,0,0,1,106.07,229.42Zm.48,2.38v.87c0,.27,0,.52,0,.78h3.3V231.8Zm0-.42h3.27v-1.52h-3.27Zm19.54,5.06h-.24a.22.22,0,0,1-.24-.23v-6.47a.21.21,0,0,1,.24-.23h4.49a.21.21,0,0,1,.23.23v6.47a.21.21,0,0,1-.23.23h-.25a.21.21,0,0,1-.23-.23v-.3h-3.53v.3A.22.22,0,0,1,126.09,236.44Zm.24-4h3.53V230h-3.53Zm0,.43v2.64h3.53v-2.64Zm-74.91-3.33c0-.14.08-.21.23-.21H57a.21.21,0,0,1,.23.23c0,.13-.08.2-.23.2H54.69V233h2.59a.21.21,0,0,1,.23.24c0,.15-.08.22-.23.22H54.69v2.59a.21.21,0,0,1-.24.23H54.2a.21.21,0,0,1-.23-.23v-2.59H51.38a.23.23,0,1,1,0-.46H54v-3.3H51.65A.2.2,0,0,1,51.42,229.51Zm1.07.87c.3.54.56,1.05.79,1.56a.23.23,0,0,1-.09.32l-.15.09a.2.2,0,0,1-.32-.1c-.27-.61-.53-1.13-.77-1.57a.22.22,0,0,1,.08-.32l.14-.09C52.29,230.19,52.41,230.23,52.49,230.38ZM55.42,232a12.69,12.69,0,0,0,.75-1.57c.06-.16.17-.2.31-.12l.17.09a.23.23,0,0,1,.11.31,11,11,0,0,1-.81,1.6.2.2,0,0,1-.33.07l-.13-.09C55.37,232.18,55.34,232.08,55.42,232Zm5.79-2.82a.21.21,0,0,1,.23-.23h.22a.22.22,0,0,1,.24.23c0,.25,0,.51,0,.81h1.84a.21.21,0,0,1,.23.23.2.2,0,0,1-.23.21H62a14.59,14.59,0,0,0,.49,2.91,9.57,9.57,0,0,0,.66-2,.19.19,0,0,1,.28-.17l.21.07a.23.23,0,0,1,.16.29,7.81,7.81,0,0,1-1.07,2.6,6.4,6.4,0,0,0,.68,1.3c.14.18.35-.17.41-1.16,0-.18.12-.25.27-.19l.22.08a.25.25,0,0,1,.17.29c-.12,1.18-.38,1.77-.86,1.77s-.94-.56-1.35-1.46a5,5,0,0,1-1.7,1.34.22.22,0,0,1-.31-.12v0a.2.2,0,0,1,.1-.31A4.75,4.75,0,0,0,62,234.1a12.86,12.86,0,0,1-.71-3.7h-2v1h1.61a.22.22,0,0,1,.24.24,18.84,18.84,0,0,1-.1,2.49c-.09.53-.44.5-.77.5l-.66-.05a.23.23,0,0,1-.22-.24c0-.14.07-.2.24-.18l.46,0c.16,0,.24-.06.3-.34s.06-.88.06-2H59.23v.31a9.73,9.73,0,0,1-.68,4c-.09.16-.22.17-.33,0l-.17-.24a.33.33,0,0,1,0-.32,10.49,10.49,0,0,0,.51-3.82v-1.54a.21.21,0,0,1,.23-.23h2.48C61.22,229.65,61.21,229.4,61.21,229.15Zm1.5-.35c.32.2.61.4.87.59a.21.21,0,0,1,.05.32l0,0a.21.21,0,0,1-.33,0c-.37-.28-.65-.46-.87-.6a.22.22,0,0,1-.07-.33h0C62.43,228.72,62.55,228.71,62.71,228.8ZM82,231.94a13.12,13.12,0,0,0,1.11-2.85.21.21,0,0,1,.28-.18l.21.05a.21.21,0,0,1,.16.29c0,.13-.08.29-.13.49h4a.21.21,0,0,1,.23.23c0,.13-.08.2-.23.2H85.67v1.54H87.4a.21.21,0,0,1,.23.23.2.2,0,0,1-.23.21H85.67V234h2.26a.21.21,0,0,1,.23.23c0,.15-.08.22-.23.22H85.67v1.67a.21.21,0,0,1-.23.23h-.25a.21.21,0,0,1-.24-.23v-1.67H82.06a.21.21,0,0,1-.23-.23.2.2,0,0,1,.23-.22h1v-2a.21.21,0,0,1,.23-.23H85v-1.54H83.51a12.65,12.65,0,0,1-.94,2.14.19.19,0,0,1-.33.05l-.15-.12A.23.23,0,0,1,82,231.94Zm2.92.21H83.74V234H85Z" transform="translate(-22.25 -67.7)"/><path d="M106.07,240.51h4.23a.21.21,0,0,1,.23.23v5.79c0,.88-.11,1-.92,1l-1,0c-.15,0-.24-.08-.24-.23s.07-.24.24-.23l.84,0c.33,0,.32,0,.32-.54V245h-3.33a4.79,4.79,0,0,1-1,2.53.2.2,0,0,1-.32,0l-.11-.09c-.11-.1-.14-.19-.08-.26a5.66,5.66,0,0,0,.86-3.63v-2.78A.21.21,0,0,1,106.07,240.51Zm.48,2.38v.86c0,.27,0,.52,0,.79h3.3v-1.65Zm0-.43h3.27v-1.52h-3.27Zm19.54,5.06h-.24a.21.21,0,0,1-.24-.23v-6.47a.21.21,0,0,1,.24-.23h4.49a.21.21,0,0,1,.23.23v6.47a.21.21,0,0,1-.23.23h-.25a.21.21,0,0,1-.23-.23V247h-3.53v.3A.21.21,0,0,1,126.09,247.52Zm.24-4h3.53V241h-3.53Zm0,.43v2.64h3.53v-2.64ZM51.42,240.6c0-.15.08-.22.23-.22H57a.21.21,0,0,1,.23.23c0,.13-.08.2-.23.2H54.69v3.31h2.59a.21.21,0,0,1,.23.23c0,.15-.08.22-.23.22H54.69v2.59a.21.21,0,0,1-.24.23H54.2a.21.21,0,0,1-.23-.23v-2.59H51.38a.21.21,0,0,1-.23-.23c0-.15.08-.22.23-.22H54v-3.31H51.65C51.5,240.81,51.42,240.74,51.42,240.6Zm1.07.87c.3.53.56,1.05.79,1.55a.23.23,0,0,1-.09.32l-.15.09a.2.2,0,0,1-.32-.1c-.27-.6-.53-1.13-.77-1.57a.22.22,0,0,1,.08-.32l.14-.08C52.29,241.27,52.41,241.32,52.49,241.47Zm2.93,1.58a11.45,11.45,0,0,0,.75-1.57c.06-.16.17-.2.31-.11l.17.09a.21.21,0,0,1,.11.3,11,11,0,0,1-.81,1.6.21.21,0,0,1-.33.08l-.13-.09C55.37,243.26,55.34,243.16,55.42,243.05Zm5.79-2.81a.21.21,0,0,1,.23-.23h.22a.21.21,0,0,1,.24.23c0,.25,0,.5,0,.8h1.84a.21.21,0,0,1,.23.23c0,.14-.08.21-.23.21H62a14.34,14.34,0,0,0,.49,2.91,9.19,9.19,0,0,0,.66-2,.19.19,0,0,1,.28-.16l.21.06a.23.23,0,0,1,.16.29,7.87,7.87,0,0,1-1.07,2.61,6.51,6.51,0,0,0,.68,1.29c.14.18.35-.16.41-1.15,0-.18.12-.26.27-.2l.22.08a.25.25,0,0,1,.17.29c-.12,1.18-.38,1.78-.86,1.78s-.94-.57-1.35-1.46a5.09,5.09,0,0,1-1.7,1.33.22.22,0,0,1-.31-.11v0a.19.19,0,0,1,.1-.3A4.89,4.89,0,0,0,62,245.18a12.79,12.79,0,0,1-.71-3.7h-2v1h1.61a.22.22,0,0,1,.24.24,18.73,18.73,0,0,1-.1,2.49c-.09.53-.44.5-.77.5a5,5,0,0,1-.66,0,.22.22,0,0,1-.22-.24c0-.14.07-.19.24-.18a2.68,2.68,0,0,0,.46,0c.16,0,.24-.07.3-.34s.06-.88.06-2H59.23v.3a9.7,9.7,0,0,1-.68,3.95c-.09.16-.22.17-.33,0l-.17-.24a.32.32,0,0,1,0-.31,10.53,10.53,0,0,0,.51-3.82v-1.55a.22.22,0,0,1,.23-.23h2.48C61.22,240.74,61.21,240.48,61.21,240.24Zm1.5-.36c.32.2.61.4.87.59a.21.21,0,0,1,.05.32l0,0a.21.21,0,0,1-.33.05c-.37-.27-.65-.46-.87-.6a.21.21,0,0,1-.07-.32h0Q62.47,239.75,62.71,239.88ZM82,243a12.92,12.92,0,0,0,1.11-2.85.21.21,0,0,1,.28-.17l.21.05a.2.2,0,0,1,.16.28c0,.13-.08.3-.13.49h4a.21.21,0,0,1,.23.23.2.2,0,0,1-.23.21H85.67v1.53H87.4a.21.21,0,0,1,.23.23c0,.14-.08.21-.23.21H85.67v1.82h2.26a.21.21,0,0,1,.23.23c0,.14-.08.21-.23.21H85.67v1.67a.21.21,0,0,1-.23.23h-.25a.21.21,0,0,1-.24-.23v-1.67H82.06a.21.21,0,0,1-.23-.23c0-.14.08-.21.23-.21h1v-2a.21.21,0,0,1,.23-.23H85v-1.53H83.51a13,13,0,0,1-.94,2.14.2.2,0,0,1-.33,0l-.15-.13A.23.23,0,0,1,82,243Zm2.92.21H83.74v1.82H85Z" transform="translate(-22.25 -67.7)"/><path class="cls-7" d="M298.94,246.19h-8.83a3.22,3.22,0,0,1-3.22-3.22v-8.83a3.23,3.23,0,0,1,3.22-3.23h8.83a3.23,3.23,0,0,1,3.22,3.23V243A3.22,3.22,0,0,1,298.94,246.19Zm-8.83-14a2,2,0,0,0-2,2V243a2,2,0,0,0,2,2h8.83a2,2,0,0,0,2-2v-8.83a2,2,0,0,0-2-2Z" transform="translate(-22.25 -67.7)"/><path d="M63.41,118.5a3.52,3.52,0,0,1,0-6.93A3.21,3.21,0,0,1,66.29,115a3.66,3.66,0,0,1-.84,2.44A2.58,2.58,0,0,1,63.41,118.5Zm0-.59A2.92,2.92,0,1,0,61,115a3.07,3.07,0,0,0,.7,2A2.17,2.17,0,0,0,63.41,117.91Zm6.6.59A3.52,3.52,0,1,1,72.89,115a3.66,3.66,0,0,1-.84,2.44A2.58,2.58,0,0,1,70,118.5Zm0-.59a2.92,2.92,0,1,0-2.4-2.87,3.07,3.07,0,0,0,.7,2A2.17,2.17,0,0,0,70,117.91Zm6.6.59A3.52,3.52,0,1,1,79.49,115a3.66,3.66,0,0,1-.84,2.44A2.58,2.58,0,0,1,76.61,118.5Zm0-.59a2.92,2.92,0,1,0-2.4-2.87,3.07,3.07,0,0,0,.7,2A2.17,2.17,0,0,0,76.61,117.91Zm5.57-.7a8.28,8.28,0,0,1-1.61,1.13.19.19,0,0,1-.3-.1v0a.2.2,0,0,1,.09-.3,6.78,6.78,0,0,0,1.42-1.12.19.19,0,0,1,.32,0l.09.11A.2.2,0,0,1,82.18,117.21Zm-1.07-4.84v3.72H86a.21.21,0,0,1,.23.22c0,.12-.09.19-.23.19H83.56v1.84a.2.2,0,0,1-.22.22h-.25a.2.2,0,0,1-.23-.22V116.5h-2.2a.2.2,0,0,1-.23-.22v-3.91a.21.21,0,0,1,.23-.23h.23A.2.2,0,0,1,81.11,112.37Zm4.54-.43v3.4a.2.2,0,0,1-.23.22H81.75a.2.2,0,0,1-.22-.22v-3.4a.2.2,0,0,1,.22-.22h3.67A.2.2,0,0,1,85.65,111.94Zm-3.44,1H85v-.78H82.21Zm0,.34V114H85v-.81Zm0,1.13v.84H85v-.84Zm3.57,4a17.62,17.62,0,0,0-1.58-1.24.22.22,0,0,1-.08-.3l0,0a.2.2,0,0,1,.32-.08,15,15,0,0,1,1.67,1.19.23.23,0,0,1,.05.32l-.09.12A.18.18,0,0,1,85.78,118.39Zm4,.11A3.52,3.52,0,1,1,92.69,115a3.66,3.66,0,0,1-.84,2.44A2.58,2.58,0,0,1,89.81,118.5Zm0-.59a2.92,2.92,0,1,0-2.4-2.87,3.07,3.07,0,0,0,.7,2A2.17,2.17,0,0,0,89.81,117.91Zm6.6.59A3.52,3.52,0,1,1,99.29,115a3.66,3.66,0,0,1-.84,2.44A2.58,2.58,0,0,1,96.41,118.5Zm0-.59A2.92,2.92,0,1,0,94,115a3.07,3.07,0,0,0,.7,2A2.17,2.17,0,0,0,96.41,117.91Zm9.63-5.38a.19.19,0,0,1-.22.21h-2.48v1.15h2a.21.21,0,0,1,.23.23v2.79c0,.84-.08,1-.78,1-.08,0-.34,0-.77,0a.22.22,0,0,1-.23-.22c0-.15.07-.23.23-.22a6.27,6.27,0,0,0,.67,0c.21,0,.2,0,.2-.52v-2.59h-1.6v4.09a.2.2,0,0,1-.22.22h-.26a.2.2,0,0,1-.22-.22v-4.09h-1.57v3.33a.2.2,0,0,1-.22.22h-.22a.2.2,0,0,1-.23-.22v-3.53a.21.21,0,0,1,.23-.23h2v-1.15H100.2a.2.2,0,0,1-.22-.22.19.19,0,0,1,.22-.21h2.44v-.65a.2.2,0,0,1,.22-.22h.26a.2.2,0,0,1,.22.22v.65h2.48A.2.2,0,0,1,106,112.53Zm3.57,6a3.52,3.52,0,1,1,2.88-3.46,3.66,3.66,0,0,1-.84,2.44A2.58,2.58,0,0,1,109.61,118.5Zm0-.59a2.92,2.92,0,1,0-2.4-2.87,3.07,3.07,0,0,0,.7,2A2.17,2.17,0,0,0,109.61,117.91Zm6.6.59a3.52,3.52,0,1,1,2.88-3.46,3.66,3.66,0,0,1-.84,2.44A2.58,2.58,0,0,1,116.21,118.5Zm0-.59a2.92,2.92,0,1,0-2.4-2.87,3.07,3.07,0,0,0,.7,2A2.17,2.17,0,0,0,116.21,117.91Zm4.21-.41h-.23a.2.2,0,0,1-.22-.23V112a.2.2,0,0,1,.22-.22H123a.2.2,0,0,1,.22.22v.35h2.44a.22.22,0,1,1,0,.44h-.48v4.73c0,.86-.08,1-.92,1l-.84,0a.22.22,0,0,1-.23-.22c0-.14.08-.22.24-.21l.66,0c.42,0,.4-.16.4-.53v-4.73h-1.27v4.35a.2.2,0,0,1-.22.23h-.21a.2.2,0,0,1-.22-.23v-.23h-2v.39A.2.2,0,0,1,120.42,117.5Zm.89-5.34h-.67v1.91h.67Zm-.67,2.3v2h.67v-2Zm1.31-2.3v1.91h.66v-1.91Zm0,4.33h.66v-2H122Zm7.46,2a3.52,3.52,0,1,1,2.88-3.46,3.66,3.66,0,0,1-.84,2.44A2.58,2.58,0,0,1,129.41,118.5Zm0-.59A2.92,2.92,0,1,0,127,115a3.07,3.07,0,0,0,.7,2A2.17,2.17,0,0,0,129.41,117.91Zm6.6.59a3.52,3.52,0,1,1,2.88-3.46,3.66,3.66,0,0,1-.84,2.44A2.58,2.58,0,0,1,136,118.5Zm0-.59a2.92,2.92,0,1,0-2.4-2.87,3.07,3.07,0,0,0,.7,2A2.17,2.17,0,0,0,136,117.91Zm4.3-5.59a.21.21,0,0,1-.23-.22c0-.13.07-.19.23-.19a28,28,0,0,0,4.55-.34c.15,0,.24,0,.26.18s0,.2-.18.22a16.8,16.8,0,0,1-2,.23v1.47h.56a8.81,8.81,0,0,0,.53-1.11.21.21,0,0,1,.28-.15l.16,0a.2.2,0,0,1,.14.29c-.11.25-.26.56-.45.92h1.21a.2.2,0,0,1,.22.22c0,.12-.08.19-.22.19h-2a7.68,7.68,0,0,0,2.14,1.52.22.22,0,0,1,.13.29v0c0,.15-.16.2-.29.12l-.42-.23v2.47a.2.2,0,0,1-.22.22h-.24a.2.2,0,0,1-.22-.22v-.13H141v.13a.2.2,0,0,1-.23.22h-.22a.2.2,0,0,1-.22-.22v-2.47l-.43.23a.18.18,0,0,1-.29-.12v0a.22.22,0,0,1,.13-.29,7.83,7.83,0,0,0,2.14-1.52h-2a.2.2,0,0,1-.22-.23c0-.12.08-.18.22-.18H141l-.37-.75a.19.19,0,0,1,.11-.29l.11,0a.22.22,0,0,1,.3.1,10.2,10.2,0,0,1,.5,1h.6v-1.41C141.62,112.29,141,112.31,140.31,112.32Zm2,2A6.73,6.73,0,0,1,141,115.4h1.31Zm0,2.32v-.86H141v.86ZM141,117.83h1.29v-.89H141Zm3.28-2.43a7.15,7.15,0,0,1-1.32-1.11v1.11Zm-1.32,1.21h1.3v-.86h-1.3Zm1.3,1.22v-.89h-1.3v.89Zm3.31-5.94v1.34h.54a.19.19,0,0,1,.21.22c0,.13-.08.19-.22.19h-.53v3.41a6.16,6.16,0,0,0,.57-.32c.15-.09.26,0,.28.14h0a.26.26,0,0,1-.14.28,10.32,10.32,0,0,1-1.83.87c-.15.06-.24,0-.27-.16v0a.24.24,0,0,1,.17-.27l.54-.2v-3.73h-.48a.2.2,0,0,1-.23-.22c0-.13.08-.19.23-.19h.48v-1.34a.2.2,0,0,1,.22-.22h.23A.2.2,0,0,1,147.55,111.89Zm.5,1.88.53-.17v-1.48a.21.21,0,0,1,.23-.23H149a.2.2,0,0,1,.22.23v1.28l.72-.22v-1.49a.2.2,0,0,1,.22-.22h.21a.2.2,0,0,1,.22.22V113l1.23-.38c.16,0,.26,0,.26.19v0c0,1,0,1.76-.06,2.25a2.4,2.4,0,0,1-.17.88.46.46,0,0,1-.39.17,3,3,0,0,1-.43,0,.2.2,0,0,1-.21-.21c0-.16.07-.23.23-.21s.23,0,.26-.09,0-.14.05-.33,0-.4,0-.74,0-.77,0-1.34l-.81.27v3a.2.2,0,0,1-.22.23h-.21a.2.2,0,0,1-.22-.23v-2.8l-.72.22v3.58c0,.28.08.42.12.44a5.34,5.34,0,0,0,1.11.06h.41a1.39,1.39,0,0,0,.32,0,.33.33,0,0,0,.24-.14,1.45,1.45,0,0,0,.12-.25c0-.06.08-.46.09-.72,0-.06,0-.14,0-.26s.1-.23.25-.2l.21.06a.21.21,0,0,1,.18.26l0,.38a4.47,4.47,0,0,1-.15.86.9.9,0,0,1-.43.36,3.21,3.21,0,0,1-.79.12h-.57a8.12,8.12,0,0,1-1.15-.05c-.32-.06-.45-.12-.52-.22a.82.82,0,0,1-.12-.55v-3.49l-.43.14c-.14,0-.24,0-.27-.17v0A.22.22,0,0,1,148.05,113.77Zm7.76,4.73a3.52,3.52,0,1,1,2.88-3.46,3.66,3.66,0,0,1-.84,2.44A2.58,2.58,0,0,1,155.81,118.5Zm0-.59a2.92,2.92,0,1,0-2.4-2.87,3.07,3.07,0,0,0,.7,2A2.17,2.17,0,0,0,155.81,117.91Zm6.6.59a3.52,3.52,0,1,1,2.88-3.46,3.66,3.66,0,0,1-.84,2.44A2.58,2.58,0,0,1,162.41,118.5Zm0-.59A2.92,2.92,0,1,0,160,115a3.07,3.07,0,0,0,.7,2A2.17,2.17,0,0,0,162.41,117.91Zm9-1.79a14.71,14.71,0,0,1-.21,1.66.73.73,0,0,1-.48.59,1.38,1.38,0,0,1-.38,0c-.28,0-.74,0-1.39-.06a.22.22,0,0,1-.22-.23c0-.14.08-.22.23-.21.54,0,.94.07,1.23.07s.24,0,.34-.53c0-.19.09-.59.15-1.18h-3.06c-.08.28-.19.58-.31.88a.2.2,0,0,1-.29.13l-.19-.06a.19.19,0,0,1-.13-.29,18.3,18.3,0,0,0,.55-1.84h-1a.2.2,0,0,1-.23-.22c0-.13.08-.2.23-.2h5.58a.2.2,0,0,1,.22.22c0,.13-.08.2-.22.2h-3.89c0,.18-.1.42-.2.77h3.44C171.3,115.87,171.38,116,171.37,116.12Zm-.05-4.15v1.8a.2.2,0,0,1-.22.23h-4.17a.2.2,0,0,1-.22-.23V112a.2.2,0,0,1,.22-.22h4.17A.2.2,0,0,1,171.32,112Zm-3.93,1.66h3.23v-1.47h-3.23Z" transform="translate(-22.25 -67.7)"/><path d="M66.32,91.13c-2,0-3.64-1.95-3.64-4.37s1.63-4.37,3.64-4.37,3.63,2,3.63,4.37a4.64,4.64,0,0,1-1.06,3.09A3.24,3.24,0,0,1,66.32,91.13Zm0-.73c1.67,0,3-1.63,3-3.64s-1.36-3.64-3-3.64-3,1.63-3,3.64a3.92,3.92,0,0,0,.89,2.57A2.74,2.74,0,0,0,66.32,90.4Zm8.33.73c-2,0-3.64-1.95-3.64-4.37s1.63-4.37,3.64-4.37,3.64,2,3.64,4.37a4.69,4.69,0,0,1-1.06,3.09A3.25,3.25,0,0,1,74.65,91.13Zm0-.73c1.68,0,3-1.63,3-3.64s-1.35-3.64-3-3.64-3,1.63-3,3.64a3.87,3.87,0,0,0,.89,2.57A2.72,2.72,0,0,0,74.65,90.4Zm16.67.73c-2,0-3.63-1.95-3.63-4.37s1.62-4.37,3.63-4.37,3.64,2,3.64,4.37a4.64,4.64,0,0,1-1.06,3.09A3.25,3.25,0,0,1,91.32,91.13Zm0-.73c1.68,0,3-1.63,3-3.64s-1.35-3.64-3-3.64-3,1.63-3,3.64a3.92,3.92,0,0,0,.89,2.57A2.72,2.72,0,0,0,91.32,90.4Zm8.34.73c-2,0-3.64-1.95-3.64-4.37s1.63-4.37,3.64-4.37,3.64,2,3.64,4.37a4.65,4.65,0,0,1-1.07,3.09A3.22,3.22,0,0,1,99.66,91.13Zm0-.73c1.68,0,3-1.63,3-3.64s-1.35-3.64-3-3.64-3,1.63-3,3.64a3.87,3.87,0,0,0,.89,2.57A2.71,2.71,0,0,0,99.66,90.4Z" transform="translate(-22.25 -67.7)"/><rect class="cls-9" x="204.75" y="58.83" width="82.11" height="102.42"/><g class="cls-10"><path class="cls-11" d="M286.54,151.17a16.91,16.91,0,0,0-3.16-6.77,14,14,0,0,0-1.2-1.35,7.6,7.6,0,0,0-3.05-2.47,19.39,19.39,0,0,0-18.34-1.36,7.59,7.59,0,0,0-3.33,2.65,13.16,13.16,0,0,0-6.83,6.1,18.69,18.69,0,0,0-1.39,3.18,19.88,19.88,0,0,0-1.63,6.75,61.79,61.79,0,0,0-.32,6.8c0,.39,0,.78,0,1.17,0,.17,0,.34,0,.51l0,.38a43.9,43.9,0,0,0,1,7.66,14.14,14.14,0,0,0,2,5.09c-.07-.83-.13-1.66-.2-2.49a16.14,16.14,0,0,0,1.1,1.68,1.44,1.44,0,0,0,.64.56,1.52,1.52,0,0,0,.79,0l.57-.12a18.52,18.52,0,0,1-1.64-4.87,40.06,40.06,0,0,1-.82-12.77,27.87,27.87,0,0,1,1.95-7.87,25.1,25.1,0,0,1,2.41-4.52,12.47,12.47,0,0,0,1.33,8.45,4.93,4.93,0,0,0,1.74,2,35.89,35.89,0,0,1-1.53-6.19,13.55,13.55,0,0,1,.08-4.12,19,19,0,0,0,.91,2.73,17.66,17.66,0,0,0,3.69,5.79,9.26,9.26,0,0,0,6.14,2.8,11.76,11.76,0,0,1-4.62-3.94,25.42,25.42,0,0,1-2.5-3.6,26.68,26.68,0,0,0,8.46,6.25c3.19,1.48,6.89,2.53,8.86,5.41a2.62,2.62,0,0,1,1.36-.95,3.73,3.73,0,0,1,3.43.47,3.38,3.38,0,0,1,1.08,1.81,3.74,3.74,0,0,1,.09.66,5.92,5.92,0,0,1-.76,2.85,12.12,12.12,0,0,1-1.19,1.85,4.7,4.7,0,0,1-1.43,2,2.14,2.14,0,0,1-1.78.46c-.67-.18-.48-.17-1,.46a13.66,13.66,0,0,0-1.1,1.52,12.19,12.19,0,0,0-1.31,3,18.06,18.06,0,0,1,4.74.56l2.29-5.32c-.3,1.84-.61,3.67-.91,5.51a3.55,3.55,0,0,1,1.55.19c.24-1.07.47-2.14.7-3.21.3-1.36.58-2.73.78-4.11-.16,2.57-.39,5.13-.79,7.68a55.75,55.75,0,0,0,3.69-10.48c0,1.35-.09,2.71-.17,4.06-.18,2.67-.48,5.43-1.81,7.75a19.07,19.07,0,0,0,2.9-7.32A41.34,41.34,0,0,0,286.54,151.17Z" transform="translate(-22.25 -67.7)"/><path class="cls-12" d="M283.57,166a3.38,3.38,0,0,0-1.08-1.81,3.73,3.73,0,0,0-3.43-.47,2.66,2.66,0,0,0-1.36.95c-2-2.88-5.67-3.93-8.86-5.41a26.68,26.68,0,0,1-8.46-6.25,25.42,25.42,0,0,0,2.5,3.6,11.76,11.76,0,0,0,4.62,3.94,9.26,9.26,0,0,1-6.14-2.8,17.66,17.66,0,0,1-3.69-5.79,19,19,0,0,1-.91-2.73,13.55,13.55,0,0,0-.08,4.12,35,35,0,0,0,1.53,6.19,4.93,4.93,0,0,1-1.74-2,12.47,12.47,0,0,1-1.33-8.45,24.44,24.44,0,0,0-2.4,4.52,27.55,27.55,0,0,0-2,7.87,35.57,35.57,0,0,0-.18,4.5,3.2,3.2,0,0,0-3-1.28,2.27,2.27,0,0,0-1.53,1.54,4.05,4.05,0,0,0,0,2.13,8.08,8.08,0,0,0,5.53,5.92,18.35,18.35,0,0,0,1.63,4.83,8.9,8.9,0,0,0,.93,1.42c1.28,1.6,3.07,2.67,4.63,4s3,3.06,3.06,5.1l-.36,1.76c-.38,1.25-4.82,6.42-4.82,6.42l23,1.3a59.17,59.17,0,0,1-5.2-6.66c-1.29-2.2-.66-5-.44-7.35a31.51,31.51,0,0,1,1-6.35,12.19,12.19,0,0,1,1.31-3,13.66,13.66,0,0,1,1.1-1.52c.56-.63.37-.64,1-.46a2.14,2.14,0,0,0,1.78-.46,4.7,4.7,0,0,0,1.43-2,12.12,12.12,0,0,0,1.19-1.85,5.92,5.92,0,0,0,.76-2.85A3.74,3.74,0,0,0,283.57,166Z" transform="translate(-22.25 -67.7)"/><path class="cls-3" d="M237.54,281.8a164.82,164.82,0,0,0,3.82-26.25,31.82,31.82,0,0,1,1.36-3.19c3.73-7.46,2.3-16.16-.11-23.75a1.69,1.69,0,0,0-.11-.27c.26-9.2.59-18.4,1.55-27.55a6.81,6.81,0,0,1,1-3.39,8.93,8.93,0,0,1,2.87-2.23l9.44-5.47c5,5.06,15.37,5.18,20.63.23l4.72,2.73,11,4.16c1.55.59,3.21,1.26,4,2.54a5.85,5.85,0,0,1,.62,3.27q-.06,5.12-.1,10.24a58.16,58.16,0,0,1-2.19,15.8,25.56,25.56,0,0,0-.83,9c.55,7.37,2.83,14.46,2.72,21.9,0,2.05-.48,23.11-.32,23.11Z" transform="translate(-22.25 -67.7)"/><path class="cls-3" d="M254.1,206.36q-1.68,5-3.08,10c-.94,3.35-1.81,6.82-2.51,10.09a68.62,68.62,0,0,0-1.63,12.75A35.84,35.84,0,0,0,247,243a5.64,5.64,0,0,1-.67,2.4,6.3,6.3,0,0,0-.42,1.22,2.41,2.41,0,0,0,.1,1.19,1.9,1.9,0,0,0,.47.74c.18.16.61.31.69.5s-.12.41-.22.61a1.53,1.53,0,0,0-.15,1,4.31,4.31,0,0,0,.56,1.52c.3.46.64.89.95,1.29s1.07.75,1.23,1.24c-2.33,1.6-4.91,3-7.33,4.5l-5.31,3.24c-2.07,1.28-2.87.29-2.62-2.13a8.11,8.11,0,0,0,.12-2.49c-.23-1.42-1.44-1.67-1.92-2.77-.29-.73.27-1.44.35-2.18a3.17,3.17,0,0,0-.73-2.25c-.69-.88-1.8-1.37-2.36-2.34a5.13,5.13,0,0,1-.58-1.62c-.1-.57-.13-1.15-.18-1.68a17.54,17.54,0,0,1,0-3.16c0-1,.17-2.06.18-3.09a75.08,75.08,0,0,1,1-10.44c.39-2.37,2.84-4.13,2.88-6.4,0-1.34-.62-2.78,0-4s1.56-2.23,1.88-3.55-.23-2.7-.38-4.16.57-2.52.94-3.74q.88-2.85,1.83-5.69c1.22-3.63,6-5.13,10.61-3.4S255.2,203.08,254.1,206.36Zm-22,48.61a.1.1,0,0,1,0,0S232.06,254.87,232.07,255Z" transform="translate(-22.25 -67.7)"/><path class="cls-3" d="M301.14,204.29a143.31,143.31,0,0,1,4.55,21.39c.63,4.8,1,9.64,1.18,14.49,0,1.53.08,3.05.07,4.58a7.12,7.12,0,0,1-1,2.94,11.45,11.45,0,0,0-1.11,3.83c-.07.61-.12,1.21-.13,1.83a5.36,5.36,0,0,1,0,1.6,2.44,2.44,0,0,1-.78.92l-.06,0a12.51,12.51,0,0,0-1.35,1.47l-1,1.22c-.26.35-.48.66-.66.95a2.84,2.84,0,0,0-.51,1.22s0,.12.09.14h0l-.09-.05-.39-.21-.61-.31-.53-.23a2.17,2.17,0,0,0-.35-.15,5,5,0,0,0-.5-.16l-1.23-.31-4.17-1.09-6-1.56c-1.17-.29-1.69-1-1.5-2A4.4,4.4,0,0,1,287.5,252c.88-.46,1.7-.75,2.25-1.12a1.15,1.15,0,0,0,.24-1.67s.15,0,.36,0a2.16,2.16,0,0,0,.64.08c.35,0,.3-.3,0-.52-.44-.44-1.39-.8-1.8-1.36a4.27,4.27,0,0,1-.34-2.29c0-1.53.36-3.07.32-4.61-.07-2.71-.29-5.42-.52-8.13-.16-1.86,1.65-3.91.95-5.72-.42-1.07-1.51-1.93-1.43-3.09s.59-2.31.33-3.45-1.36-1.94-2.12-2.94-.65-2.06-.9-3.1q-.62-2.43-1.32-4.84c-.89-3,2-6.74,6.63-8.39S300.1,200.76,301.14,204.29ZM289.7,249.05h0S289.73,249.05,289.7,249.05Z" transform="translate(-22.25 -67.7)"/></g></svg>
